<?xml version="1.0" encoding="UTF-8" standalone="no"?><!DOCTYPE svg PUBLIC "-//W3C//DTD SVG 1.1//EN" "http://www.w3.org/Graphics/SVG/1.1/DTD/svg11.dtd"><svg width="100%" height="100%" viewBox="0 0 300 300" version="1.1" xmlns="http://www.w3.org/2000/svg" xmlns:xlink="http://www.w3.org/1999/xlink" xml:space="preserve" xmlns:serif="http://www.serif.com/" style="fill-rule:evenodd;clip-rule:evenodd;stroke-linecap:round;stroke-linejoin:round;stroke-miterlimit:1.5;"><rect x="91" y="39" width="118" height="222" style="fill:none;stroke:#f5f1ef;stroke-width:0.5px;"/><path d="M80,50l0,196" style="fill:none;stroke:#ea304d;stroke-width:2px;"/><g id="Text"><g><path d="M99.874,65.29l69,0" style="fill:none;stroke:#ea304d;stroke-width:0.5px;"/><path d="M99.874,52.86l3.04,0c0.2,0 0.422,0.023 0.665,0.07c0.243,0.047 0.47,0.142 0.68,0.285c0.21,0.143 0.385,0.347 0.525,0.61c0.14,0.263 0.21,0.608 0.21,1.035c0,0.627 -0.193,1.11 -0.58,1.45c-0.387,0.34 -0.94,0.51 -1.66,0.51l-2.44,0l0,3.18l-0.44,0l0,-7.14Zm0.44,3.58l2.51,0c0.32,0 0.592,-0.048 0.815,-0.145c0.223,-0.097 0.402,-0.222 0.535,-0.375c0.133,-0.153 0.23,-0.323 0.29,-0.51c0.06,-0.187 0.09,-0.373 0.09,-0.56c0,-0.133 -0.02,-0.292 -0.06,-0.475c-0.04,-0.183 -0.12,-0.36 -0.24,-0.53c-0.12,-0.17 -0.288,-0.313 -0.505,-0.43c-0.217,-0.117 -0.505,-0.175 -0.865,-0.175l-2.57,0l0,3.2Z" style="fill:#aa9fa4;fill-rule:nonzero;"/><path d="M105.894,56l0.03,0c0.047,-0.167 0.132,-0.323 0.255,-0.47c0.123,-0.147 0.273,-0.273 0.45,-0.38c0.177,-0.107 0.373,-0.188 0.59,-0.245c0.217,-0.057 0.442,-0.082 0.675,-0.075l0,0.38c-0.2,-0.027 -0.428,-0.007 -0.685,0.06c-0.257,0.067 -0.502,0.213 -0.735,0.44c-0.093,0.1 -0.175,0.197 -0.245,0.29c-0.07,0.093 -0.128,0.197 -0.175,0.31c-0.047,0.113 -0.083,0.24 -0.11,0.38c-0.027,0.14 -0.043,0.307 -0.05,0.5l0,2.81l-0.38,0l0,-5.14l0.38,0l0,1.14Z" style="fill:#aa9fa4;fill-rule:nonzero;"/><path d="M107.934,57.43c0,-0.367 0.052,-0.712 0.155,-1.035c0.103,-0.323 0.255,-0.608 0.455,-0.855c0.2,-0.247 0.447,-0.442 0.74,-0.585c0.293,-0.143 0.63,-0.215 1.01,-0.215c0.38,0 0.717,0.072 1.01,0.215c0.293,0.143 0.54,0.338 0.74,0.585c0.2,0.247 0.352,0.532 0.455,0.855c0.103,0.323 0.155,0.668 0.155,1.035c0,0.367 -0.052,0.713 -0.155,1.04c-0.103,0.327 -0.255,0.612 -0.455,0.855c-0.2,0.243 -0.447,0.437 -0.74,0.58c-0.293,0.143 -0.63,0.215 -1.01,0.215c-0.38,0 -0.717,-0.072 -1.01,-0.215c-0.293,-0.143 -0.54,-0.337 -0.74,-0.58c-0.2,-0.243 -0.352,-0.528 -0.455,-0.855c-0.103,-0.327 -0.155,-0.673 -0.155,-1.04Zm0.38,0c0,0.307 0.043,0.602 0.13,0.885c0.087,0.283 0.213,0.535 0.38,0.755c0.167,0.22 0.373,0.395 0.62,0.525c0.247,0.13 0.53,0.195 0.85,0.195c0.32,0 0.603,-0.065 0.85,-0.195c0.247,-0.13 0.453,-0.305 0.62,-0.525c0.167,-0.22 0.293,-0.472 0.38,-0.755c0.087,-0.283 0.13,-0.578 0.13,-0.885c0,-0.307 -0.043,-0.602 -0.13,-0.885c-0.087,-0.283 -0.213,-0.535 -0.38,-0.755c-0.167,-0.22 -0.373,-0.395 -0.62,-0.525c-0.247,-0.13 -0.53,-0.195 -0.85,-0.195c-0.32,0 -0.603,0.065 -0.85,0.195c-0.247,0.13 -0.453,0.305 -0.62,0.525c-0.167,0.22 -0.293,0.472 -0.38,0.755c-0.087,0.283 -0.13,0.578 -0.13,0.885Z" style="fill:#aa9fa4;fill-rule:nonzero;"/><path d="M113.634,53.89l0,-1.03l0.38,0l0,1.03l-0.38,0Zm0.38,0.97l0,5.69c0,0.173 -0.013,0.338 -0.04,0.495c-0.027,0.157 -0.078,0.293 -0.155,0.41c-0.077,0.117 -0.183,0.21 -0.32,0.28c-0.137,0.07 -0.315,0.105 -0.535,0.105l-0.16,0c-0.027,0 -0.053,0 -0.08,0c-0.027,0 -0.053,-0.003 -0.08,-0.01l0,-0.33c0.033,0.007 0.07,0.012 0.11,0.015c0.04,0.003 0.087,0.005 0.14,0.005c0.133,0 0.247,-0.015 0.34,-0.045c0.093,-0.03 0.17,-0.083 0.23,-0.16c0.06,-0.077 0.103,-0.18 0.13,-0.31c0.027,-0.13 0.04,-0.292 0.04,-0.485l0,-5.66l0.38,0Z" style="fill:#aa9fa4;fill-rule:nonzero;"/><path d="M115.374,57.48l0,0.06c0,0.3 0.04,0.587 0.12,0.86c0.08,0.273 0.198,0.513 0.355,0.72c0.157,0.207 0.353,0.37 0.59,0.49c0.237,0.12 0.512,0.18 0.825,0.18c0.513,0 0.92,-0.135 1.22,-0.405c0.3,-0.27 0.507,-0.645 0.62,-1.125l0.38,0c-0.113,0.6 -0.358,1.06 -0.735,1.38c-0.377,0.32 -0.875,0.48 -1.495,0.48c-0.38,0 -0.712,-0.068 -0.995,-0.205c-0.283,-0.137 -0.52,-0.323 -0.71,-0.56c-0.19,-0.237 -0.332,-0.517 -0.425,-0.84c-0.093,-0.323 -0.14,-0.672 -0.14,-1.045c0,-0.36 0.048,-0.705 0.145,-1.035c0.097,-0.33 0.242,-0.62 0.435,-0.87c0.193,-0.25 0.435,-0.45 0.725,-0.6c0.29,-0.15 0.632,-0.225 1.025,-0.225c0.36,0 0.678,0.067 0.955,0.2c0.277,0.133 0.508,0.315 0.695,0.545c0.187,0.23 0.328,0.497 0.425,0.8c0.097,0.303 0.145,0.628 0.145,0.975c0,0.033 -0.002,0.072 -0.005,0.115c-0.003,0.043 -0.005,0.078 -0.005,0.105l-4.15,0Zm3.77,-0.33c-0.013,-0.28 -0.06,-0.545 -0.14,-0.795c-0.08,-0.25 -0.198,-0.47 -0.355,-0.66c-0.157,-0.19 -0.347,-0.342 -0.57,-0.455c-0.223,-0.113 -0.478,-0.17 -0.765,-0.17c-0.307,0 -0.577,0.058 -0.81,0.175c-0.233,0.117 -0.43,0.27 -0.59,0.46c-0.16,0.19 -0.283,0.412 -0.37,0.665c-0.087,0.253 -0.14,0.513 -0.16,0.78l3.76,0Z" style="fill:#aa9fa4;fill-rule:nonzero;"/><path d="M124.284,56.45c-0.02,-0.227 -0.078,-0.427 -0.175,-0.6c-0.097,-0.173 -0.222,-0.317 -0.375,-0.43c-0.153,-0.113 -0.332,-0.2 -0.535,-0.26c-0.203,-0.06 -0.422,-0.09 -0.655,-0.09c-0.32,0 -0.603,0.065 -0.85,0.195c-0.247,0.13 -0.453,0.303 -0.62,0.52c-0.167,0.217 -0.293,0.463 -0.38,0.74c-0.087,0.277 -0.13,0.562 -0.13,0.855c0,0.347 0.04,0.667 0.12,0.96c0.08,0.293 0.203,0.548 0.37,0.765c0.167,0.217 0.373,0.385 0.62,0.505c0.247,0.12 0.537,0.18 0.87,0.18c0.24,0 0.462,-0.04 0.665,-0.12c0.203,-0.08 0.383,-0.19 0.54,-0.33c0.157,-0.14 0.285,-0.308 0.385,-0.505c0.1,-0.197 0.167,-0.412 0.2,-0.645l0.38,0c-0.04,0.307 -0.123,0.58 -0.25,0.82c-0.127,0.24 -0.287,0.442 -0.48,0.605c-0.193,0.163 -0.413,0.288 -0.66,0.375c-0.247,0.087 -0.507,0.13 -0.78,0.13c-0.42,0 -0.778,-0.075 -1.075,-0.225c-0.297,-0.15 -0.54,-0.352 -0.73,-0.605c-0.19,-0.253 -0.33,-0.545 -0.42,-0.875c-0.09,-0.33 -0.135,-0.675 -0.135,-1.035c0,-0.36 0.052,-0.7 0.155,-1.02c0.103,-0.32 0.255,-0.6 0.455,-0.84c0.2,-0.24 0.447,-0.43 0.74,-0.57c0.293,-0.14 0.63,-0.21 1.01,-0.21c0.28,0 0.542,0.035 0.785,0.105c0.243,0.07 0.46,0.175 0.65,0.315c0.19,0.14 0.345,0.318 0.465,0.535c0.12,0.217 0.193,0.468 0.22,0.755l-0.38,0Z" style="fill:#aa9fa4;fill-rule:nonzero;"/><path d="M127.494,55.19l-1.12,0l0,3.59c0,0.207 0.023,0.37 0.07,0.49c0.047,0.12 0.118,0.212 0.215,0.275c0.097,0.063 0.213,0.102 0.35,0.115c0.137,0.013 0.295,0.017 0.475,0.01l0,0.33c-0.193,0.013 -0.382,0.012 -0.565,-0.005c-0.183,-0.017 -0.345,-0.067 -0.485,-0.15c-0.14,-0.083 -0.252,-0.208 -0.335,-0.375c-0.083,-0.167 -0.118,-0.397 -0.105,-0.69l0,-3.59l-0.95,0l0,-0.33l0.95,0l0,-1.6l0.38,0l0,1.6l1.12,0l0,0.33Z" style="fill:#aa9fa4;fill-rule:nonzero;"/><path d="M131.044,52.86l0.44,0l0,4.11l4.49,-4.11l0.57,0l-3.26,2.97l3.46,4.17l-0.55,0l-3.23,-3.87l-1.48,1.35l0,2.52l-0.44,0l0,-7.14Z" style="fill:#aa9fa4;fill-rule:nonzero;"/><path d="M137.194,53.89l0,-1.03l0.38,0l0,1.03l-0.38,0Zm0,6.11l0,-5.14l0.38,0l0,5.14l-0.38,0Z" style="fill:#aa9fa4;fill-rule:nonzero;"/><path d="M142.654,56.45c-0.02,-0.227 -0.078,-0.427 -0.175,-0.6c-0.097,-0.173 -0.222,-0.317 -0.375,-0.43c-0.153,-0.113 -0.332,-0.2 -0.535,-0.26c-0.203,-0.06 -0.422,-0.09 -0.655,-0.09c-0.32,0 -0.603,0.065 -0.85,0.195c-0.247,0.13 -0.453,0.303 -0.62,0.52c-0.167,0.217 -0.293,0.463 -0.38,0.74c-0.087,0.277 -0.13,0.562 -0.13,0.855c0,0.347 0.04,0.667 0.12,0.96c0.08,0.293 0.203,0.548 0.37,0.765c0.167,0.217 0.373,0.385 0.62,0.505c0.247,0.12 0.537,0.18 0.87,0.18c0.24,0 0.462,-0.04 0.665,-0.12c0.203,-0.08 0.383,-0.19 0.54,-0.33c0.157,-0.14 0.285,-0.308 0.385,-0.505c0.1,-0.197 0.167,-0.412 0.2,-0.645l0.38,0c-0.04,0.307 -0.123,0.58 -0.25,0.82c-0.127,0.24 -0.287,0.442 -0.48,0.605c-0.193,0.163 -0.413,0.288 -0.66,0.375c-0.247,0.087 -0.507,0.13 -0.78,0.13c-0.42,0 -0.778,-0.075 -1.075,-0.225c-0.297,-0.15 -0.54,-0.352 -0.73,-0.605c-0.19,-0.253 -0.33,-0.545 -0.42,-0.875c-0.09,-0.33 -0.135,-0.675 -0.135,-1.035c0,-0.36 0.052,-0.7 0.155,-1.02c0.103,-0.32 0.255,-0.6 0.455,-0.84c0.2,-0.24 0.447,-0.43 0.74,-0.57c0.293,-0.14 0.63,-0.21 1.01,-0.21c0.28,0 0.542,0.035 0.785,0.105c0.243,0.07 0.46,0.175 0.65,0.315c0.19,0.14 0.345,0.318 0.465,0.535c0.12,0.217 0.193,0.468 0.22,0.755l-0.38,0Z" style="fill:#aa9fa4;fill-rule:nonzero;"/><path d="M143.994,52.86l0.38,0l0,4.73l3.17,-2.73l0.55,0l-2.25,1.92l2.41,3.22l-0.52,0l-2.19,-2.93l-1.17,0.99l0,1.94l-0.38,0l0,-7.14Z" style="fill:#aa9fa4;fill-rule:nonzero;"/><path d="M148.244,57.43c0,-0.367 0.052,-0.712 0.155,-1.035c0.103,-0.323 0.255,-0.608 0.455,-0.855c0.2,-0.247 0.447,-0.442 0.74,-0.585c0.293,-0.143 0.63,-0.215 1.01,-0.215c0.38,0 0.717,0.072 1.01,0.215c0.293,0.143 0.54,0.338 0.74,0.585c0.2,0.247 0.352,0.532 0.455,0.855c0.103,0.323 0.155,0.668 0.155,1.035c0,0.367 -0.052,0.713 -0.155,1.04c-0.103,0.327 -0.255,0.612 -0.455,0.855c-0.2,0.243 -0.447,0.437 -0.74,0.58c-0.293,0.143 -0.63,0.215 -1.01,0.215c-0.38,0 -0.717,-0.072 -1.01,-0.215c-0.293,-0.143 -0.54,-0.337 -0.74,-0.58c-0.2,-0.243 -0.352,-0.528 -0.455,-0.855c-0.103,-0.327 -0.155,-0.673 -0.155,-1.04Zm0.38,0c0,0.307 0.043,0.602 0.13,0.885c0.087,0.283 0.213,0.535 0.38,0.755c0.167,0.22 0.373,0.395 0.62,0.525c0.247,0.13 0.53,0.195 0.85,0.195c0.32,0 0.603,-0.065 0.85,-0.195c0.247,-0.13 0.453,-0.305 0.62,-0.525c0.167,-0.22 0.293,-0.472 0.38,-0.755c0.087,-0.283 0.13,-0.578 0.13,-0.885c0,-0.307 -0.043,-0.602 -0.13,-0.885c-0.087,-0.283 -0.213,-0.535 -0.38,-0.755c-0.167,-0.22 -0.373,-0.395 -0.62,-0.525c-0.247,-0.13 -0.53,-0.195 -0.85,-0.195c-0.32,0 -0.603,0.065 -0.85,0.195c-0.247,0.13 -0.453,0.305 -0.62,0.525c-0.167,0.22 -0.293,0.472 -0.38,0.755c-0.087,0.283 -0.13,0.578 -0.13,0.885Z" style="fill:#aa9fa4;fill-rule:nonzero;"/><path d="M154.594,55.19l0,4.81l-0.38,0l0,-4.81l-0.92,0l0,-0.33l0.92,0l0,-1.06c0,-0.18 0.03,-0.335 0.09,-0.465c0.06,-0.13 0.142,-0.235 0.245,-0.315c0.103,-0.08 0.223,-0.14 0.36,-0.18c0.137,-0.04 0.282,-0.06 0.435,-0.06c0.113,0 0.263,0.017 0.45,0.05l0,0.33c-0.187,-0.033 -0.337,-0.05 -0.45,-0.05c-0.213,0 -0.392,0.048 -0.535,0.145c-0.143,0.097 -0.215,0.288 -0.215,0.575l0,1.03l1.69,0l0,-1.06c0,-0.18 0.03,-0.335 0.09,-0.465c0.06,-0.13 0.142,-0.235 0.245,-0.315c0.103,-0.08 0.223,-0.14 0.36,-0.18c0.137,-0.04 0.282,-0.06 0.435,-0.06c0.113,0 0.263,0.017 0.45,0.05l0,0.33c-0.187,-0.033 -0.337,-0.05 -0.45,-0.05c-0.213,0 -0.392,0.048 -0.535,0.145c-0.143,0.097 -0.215,0.288 -0.215,0.575l0,1.03l1.07,0l0,0.33l-1.07,0l0,4.81l-0.38,0l0,-4.81l-1.69,0Z" style="fill:#aa9fa4;fill-rule:nonzero;"/></g><g><path d="M99.5,93.21l30,0" style="fill:none;stroke:#ea304d;stroke-width:0.5px;"/><path d="M100.352,82.45l0,4.28c0,0.14 0.007,0.303 0.02,0.49c0.013,0.187 0.047,0.378 0.1,0.575c0.053,0.197 0.128,0.39 0.225,0.58c0.097,0.19 0.228,0.36 0.395,0.51c0.167,0.15 0.372,0.27 0.615,0.36c0.243,0.09 0.538,0.135 0.885,0.135c0.44,0 0.808,-0.062 1.105,-0.185c0.297,-0.123 0.537,-0.3 0.72,-0.53c0.183,-0.23 0.315,-0.508 0.395,-0.835c0.08,-0.327 0.12,-0.693 0.12,-1.1l0,-4.28l0.44,0l0,4.28c0,0.427 -0.045,0.823 -0.135,1.19c-0.09,0.367 -0.242,0.687 -0.455,0.96c-0.213,0.273 -0.498,0.488 -0.855,0.645c-0.357,0.157 -0.802,0.235 -1.335,0.235c-0.42,0 -0.78,-0.053 -1.08,-0.16c-0.3,-0.107 -0.548,-0.245 -0.745,-0.415c-0.197,-0.17 -0.352,-0.365 -0.465,-0.585c-0.113,-0.22 -0.2,-0.442 -0.26,-0.665c-0.06,-0.223 -0.097,-0.44 -0.11,-0.65c-0.013,-0.21 -0.02,-0.395 -0.02,-0.555l0,-4.28l0.44,0Z" style="fill:#aa9fa4;fill-rule:nonzero;"/><path d="M106.742,87.88c0.013,0.24 0.067,0.452 0.16,0.635c0.093,0.183 0.215,0.34 0.365,0.47c0.15,0.13 0.325,0.228 0.525,0.295c0.2,0.067 0.417,0.1 0.65,0.1c0.167,0 0.345,-0.015 0.535,-0.045c0.19,-0.03 0.367,-0.085 0.53,-0.165c0.163,-0.08 0.298,-0.192 0.405,-0.335c0.107,-0.143 0.16,-0.325 0.16,-0.545c0,-0.287 -0.087,-0.503 -0.26,-0.65c-0.173,-0.147 -0.392,-0.26 -0.655,-0.34c-0.263,-0.08 -0.547,-0.145 -0.85,-0.195c-0.303,-0.05 -0.587,-0.125 -0.85,-0.225c-0.263,-0.1 -0.482,-0.242 -0.655,-0.425c-0.173,-0.183 -0.26,-0.452 -0.26,-0.805c0,-0.253 0.057,-0.465 0.17,-0.635c0.113,-0.17 0.258,-0.305 0.435,-0.405c0.177,-0.1 0.375,-0.172 0.595,-0.215c0.22,-0.043 0.44,-0.065 0.66,-0.065c0.267,0 0.517,0.03 0.75,0.09c0.233,0.06 0.435,0.157 0.605,0.29c0.17,0.133 0.303,0.303 0.4,0.51c0.097,0.207 0.145,0.457 0.145,0.75l-0.38,0c0,-0.233 -0.038,-0.433 -0.115,-0.6c-0.077,-0.167 -0.183,-0.302 -0.32,-0.405c-0.137,-0.103 -0.298,-0.18 -0.485,-0.23c-0.187,-0.05 -0.387,-0.075 -0.6,-0.075c-0.173,0 -0.348,0.017 -0.525,0.05c-0.177,0.033 -0.335,0.09 -0.475,0.17c-0.14,0.08 -0.255,0.183 -0.345,0.31c-0.09,0.127 -0.135,0.28 -0.135,0.46c0,0.207 0.05,0.373 0.15,0.5c0.1,0.127 0.232,0.228 0.395,0.305c0.163,0.077 0.347,0.138 0.55,0.185c0.203,0.047 0.408,0.093 0.615,0.14c0.253,0.047 0.492,0.102 0.715,0.165c0.223,0.063 0.417,0.15 0.58,0.26c0.163,0.11 0.292,0.252 0.385,0.425c0.093,0.173 0.14,0.393 0.14,0.66c0,0.28 -0.063,0.51 -0.19,0.69c-0.127,0.18 -0.287,0.325 -0.48,0.435c-0.193,0.11 -0.408,0.187 -0.645,0.23c-0.237,0.043 -0.468,0.065 -0.695,0.065c-0.293,0 -0.565,-0.038 -0.815,-0.115c-0.25,-0.077 -0.468,-0.193 -0.655,-0.35c-0.187,-0.157 -0.333,-0.348 -0.44,-0.575c-0.107,-0.227 -0.163,-0.49 -0.17,-0.79l0.38,0Z" style="fill:#aa9fa4;fill-rule:nonzero;"/><path d="M111.522,87.07l0,0.06c0,0.3 0.04,0.587 0.12,0.86c0.08,0.273 0.198,0.513 0.355,0.72c0.157,0.207 0.353,0.37 0.59,0.49c0.237,0.12 0.512,0.18 0.825,0.18c0.513,0 0.92,-0.135 1.22,-0.405c0.3,-0.27 0.507,-0.645 0.62,-1.125l0.38,0c-0.113,0.6 -0.358,1.06 -0.735,1.38c-0.377,0.32 -0.875,0.48 -1.495,0.48c-0.38,0 -0.712,-0.068 -0.995,-0.205c-0.283,-0.137 -0.52,-0.323 -0.71,-0.56c-0.19,-0.237 -0.332,-0.517 -0.425,-0.84c-0.093,-0.323 -0.14,-0.672 -0.14,-1.045c0,-0.36 0.048,-0.705 0.145,-1.035c0.097,-0.33 0.242,-0.62 0.435,-0.87c0.193,-0.25 0.435,-0.45 0.725,-0.6c0.29,-0.15 0.632,-0.225 1.025,-0.225c0.36,0 0.678,0.067 0.955,0.2c0.277,0.133 0.508,0.315 0.695,0.545c0.187,0.23 0.328,0.497 0.425,0.8c0.097,0.303 0.145,0.628 0.145,0.975c0,0.033 -0.002,0.072 -0.005,0.115c-0.003,0.043 -0.005,0.078 -0.005,0.105l-4.15,0Zm3.77,-0.33c-0.013,-0.28 -0.06,-0.545 -0.14,-0.795c-0.08,-0.25 -0.198,-0.47 -0.355,-0.66c-0.157,-0.19 -0.347,-0.342 -0.57,-0.455c-0.223,-0.113 -0.478,-0.17 -0.765,-0.17c-0.307,0 -0.577,0.058 -0.81,0.175c-0.233,0.117 -0.43,0.27 -0.59,0.46c-0.16,0.19 -0.283,0.412 -0.37,0.665c-0.087,0.253 -0.14,0.513 -0.16,0.78l3.76,0Z" style="fill:#aa9fa4;fill-rule:nonzero;"/><path d="M116.942,85.59l0.03,0c0.047,-0.167 0.132,-0.323 0.255,-0.47c0.123,-0.147 0.273,-0.273 0.45,-0.38c0.177,-0.107 0.373,-0.188 0.59,-0.245c0.217,-0.057 0.442,-0.082 0.675,-0.075l0,0.38c-0.2,-0.027 -0.428,-0.007 -0.685,0.06c-0.257,0.067 -0.502,0.213 -0.735,0.44c-0.093,0.1 -0.175,0.197 -0.245,0.29c-0.07,0.093 -0.128,0.197 -0.175,0.31c-0.047,0.113 -0.083,0.24 -0.11,0.38c-0.027,0.14 -0.043,0.307 -0.05,0.5l0,2.81l-0.38,0l0,-5.14l0.38,0l0,1.14Z" style="fill:#aa9fa4;fill-rule:nonzero;"/><rect x="122.192" y="82.45" width="0.44" height="7.14" style="fill:#aa9fa4;fill-rule:nonzero;"/><path d="M123.822,84.45l0.38,0l0,1.1l0.02,0c0.067,-0.193 0.162,-0.365 0.285,-0.515c0.123,-0.15 0.267,-0.278 0.43,-0.385c0.163,-0.107 0.342,-0.187 0.535,-0.24c0.193,-0.053 0.39,-0.08 0.59,-0.08c0.3,0 0.555,0.037 0.765,0.11c0.21,0.073 0.382,0.17 0.515,0.29c0.133,0.12 0.238,0.255 0.315,0.405c0.077,0.15 0.132,0.302 0.165,0.455c0.033,0.153 0.053,0.302 0.06,0.445c0.007,0.143 0.01,0.268 0.01,0.375l0,3.18l-0.38,0l0,-3.25c0,-0.127 -0.01,-0.287 -0.03,-0.48c-0.02,-0.193 -0.078,-0.378 -0.175,-0.555c-0.097,-0.177 -0.243,-0.328 -0.44,-0.455c-0.197,-0.127 -0.468,-0.19 -0.815,-0.19c-0.293,0 -0.553,0.053 -0.78,0.16c-0.227,0.107 -0.42,0.255 -0.58,0.445c-0.16,0.19 -0.282,0.417 -0.365,0.68c-0.083,0.263 -0.125,0.552 -0.125,0.865l0,2.78l-0.38,0l0,-5.14Z" style="fill:#aa9fa4;fill-rule:nonzero;"/><path d="M130.902,84.78l-1.12,0l0,3.59c0,0.207 0.023,0.37 0.07,0.49c0.047,0.12 0.118,0.212 0.215,0.275c0.097,0.063 0.213,0.102 0.35,0.115c0.137,0.013 0.295,0.017 0.475,0.01l0,0.33c-0.193,0.013 -0.382,0.012 -0.565,-0.005c-0.183,-0.017 -0.345,-0.067 -0.485,-0.15c-0.14,-0.083 -0.252,-0.208 -0.335,-0.375c-0.083,-0.167 -0.118,-0.397 -0.105,-0.69l0,-3.59l-0.95,0l0,-0.33l0.95,0l0,-1.6l0.38,0l0,1.6l1.12,0l0,0.33Z" style="fill:#aa9fa4;fill-rule:nonzero;"/><path d="M131.612,87.07l0,0.06c0,0.3 0.04,0.587 0.12,0.86c0.08,0.273 0.198,0.513 0.355,0.72c0.157,0.207 0.353,0.37 0.59,0.49c0.237,0.12 0.512,0.18 0.825,0.18c0.513,0 0.92,-0.135 1.22,-0.405c0.3,-0.27 0.507,-0.645 0.62,-1.125l0.38,0c-0.113,0.6 -0.358,1.06 -0.735,1.38c-0.377,0.32 -0.875,0.48 -1.495,0.48c-0.38,0 -0.712,-0.068 -0.995,-0.205c-0.283,-0.137 -0.52,-0.323 -0.71,-0.56c-0.19,-0.237 -0.332,-0.517 -0.425,-0.84c-0.093,-0.323 -0.14,-0.672 -0.14,-1.045c0,-0.36 0.048,-0.705 0.145,-1.035c0.097,-0.33 0.242,-0.62 0.435,-0.87c0.193,-0.25 0.435,-0.45 0.725,-0.6c0.29,-0.15 0.632,-0.225 1.025,-0.225c0.36,0 0.678,0.067 0.955,0.2c0.277,0.133 0.508,0.315 0.695,0.545c0.187,0.23 0.328,0.497 0.425,0.8c0.097,0.303 0.145,0.628 0.145,0.975c0,0.033 -0.002,0.072 -0.005,0.115c-0.003,0.043 -0.005,0.078 -0.005,0.105l-4.15,0Zm3.77,-0.33c-0.013,-0.28 -0.06,-0.545 -0.14,-0.795c-0.08,-0.25 -0.198,-0.47 -0.355,-0.66c-0.157,-0.19 -0.347,-0.342 -0.57,-0.455c-0.223,-0.113 -0.478,-0.17 -0.765,-0.17c-0.307,0 -0.577,0.058 -0.81,0.175c-0.233,0.117 -0.43,0.27 -0.59,0.46c-0.16,0.19 -0.283,0.412 -0.37,0.665c-0.087,0.253 -0.14,0.513 -0.16,0.78l3.76,0Z" style="fill:#aa9fa4;fill-rule:nonzero;"/><path d="M137.032,85.59l0.03,0c0.047,-0.167 0.132,-0.323 0.255,-0.47c0.123,-0.147 0.273,-0.273 0.45,-0.38c0.177,-0.107 0.373,-0.188 0.59,-0.245c0.217,-0.057 0.442,-0.082 0.675,-0.075l0,0.38c-0.2,-0.027 -0.428,-0.007 -0.685,0.06c-0.257,0.067 -0.502,0.213 -0.735,0.44c-0.093,0.1 -0.175,0.197 -0.245,0.29c-0.07,0.093 -0.128,0.197 -0.175,0.31c-0.047,0.113 -0.083,0.24 -0.11,0.38c-0.027,0.14 -0.043,0.307 -0.05,0.5l0,2.81l-0.38,0l0,-5.14l0.38,0l0,1.14Z" style="fill:#aa9fa4;fill-rule:nonzero;"/><path d="M141.532,89.59l-0.47,0l-2.07,-5.14l0.44,0l1.86,4.7l0.02,0l1.74,-4.7l0.42,0l-1.94,5.14Z" style="fill:#aa9fa4;fill-rule:nonzero;"/><path d="M144.102,83.48l0,-1.03l0.38,0l0,1.03l-0.38,0Zm0,6.11l0,-5.14l0.38,0l0,5.14l-0.38,0Z" style="fill:#aa9fa4;fill-rule:nonzero;"/><path d="M145.842,87.07l0,0.06c0,0.3 0.04,0.587 0.12,0.86c0.08,0.273 0.198,0.513 0.355,0.72c0.157,0.207 0.353,0.37 0.59,0.49c0.237,0.12 0.512,0.18 0.825,0.18c0.513,0 0.92,-0.135 1.22,-0.405c0.3,-0.27 0.507,-0.645 0.62,-1.125l0.38,0c-0.113,0.6 -0.358,1.06 -0.735,1.38c-0.377,0.32 -0.875,0.48 -1.495,0.48c-0.38,0 -0.712,-0.068 -0.995,-0.205c-0.283,-0.137 -0.52,-0.323 -0.71,-0.56c-0.19,-0.237 -0.332,-0.517 -0.425,-0.84c-0.093,-0.323 -0.14,-0.672 -0.14,-1.045c0,-0.36 0.048,-0.705 0.145,-1.035c0.097,-0.33 0.242,-0.62 0.435,-0.87c0.193,-0.25 0.435,-0.45 0.725,-0.6c0.29,-0.15 0.632,-0.225 1.025,-0.225c0.36,0 0.678,0.067 0.955,0.2c0.277,0.133 0.508,0.315 0.695,0.545c0.187,0.23 0.328,0.497 0.425,0.8c0.097,0.303 0.145,0.628 0.145,0.975c0,0.033 -0.002,0.072 -0.005,0.115c-0.003,0.043 -0.005,0.078 -0.005,0.105l-4.15,0Zm3.77,-0.33c-0.013,-0.28 -0.06,-0.545 -0.14,-0.795c-0.08,-0.25 -0.198,-0.47 -0.355,-0.66c-0.157,-0.19 -0.347,-0.342 -0.57,-0.455c-0.223,-0.113 -0.478,-0.17 -0.765,-0.17c-0.307,0 -0.577,0.058 -0.81,0.175c-0.233,0.117 -0.43,0.27 -0.59,0.46c-0.16,0.19 -0.283,0.412 -0.37,0.665c-0.087,0.253 -0.14,0.513 -0.16,0.78l3.76,0Z" style="fill:#aa9fa4;fill-rule:nonzero;"/><path d="M152.162,89.15l0.02,0l1.4,-4.7l0.51,0l1.41,4.7l0.02,0l1.44,-4.7l0.42,0l-1.65,5.14l-0.47,0l-1.41,-4.66l-0.02,0l-1.42,4.66l-0.48,0l-1.63,-5.14l0.41,0l1.45,4.7Z" style="fill:#aa9fa4;fill-rule:nonzero;"/><path d="M158.102,87.88c0.013,0.24 0.067,0.452 0.16,0.635c0.093,0.183 0.215,0.34 0.365,0.47c0.15,0.13 0.325,0.228 0.525,0.295c0.2,0.067 0.417,0.1 0.65,0.1c0.167,0 0.345,-0.015 0.535,-0.045c0.19,-0.03 0.367,-0.085 0.53,-0.165c0.163,-0.08 0.298,-0.192 0.405,-0.335c0.107,-0.143 0.16,-0.325 0.16,-0.545c0,-0.287 -0.087,-0.503 -0.26,-0.65c-0.173,-0.147 -0.392,-0.26 -0.655,-0.34c-0.263,-0.08 -0.547,-0.145 -0.85,-0.195c-0.303,-0.05 -0.587,-0.125 -0.85,-0.225c-0.263,-0.1 -0.482,-0.242 -0.655,-0.425c-0.173,-0.183 -0.26,-0.452 -0.26,-0.805c0,-0.253 0.057,-0.465 0.17,-0.635c0.113,-0.17 0.258,-0.305 0.435,-0.405c0.177,-0.1 0.375,-0.172 0.595,-0.215c0.22,-0.043 0.44,-0.065 0.66,-0.065c0.267,0 0.517,0.03 0.75,0.09c0.233,0.06 0.435,0.157 0.605,0.29c0.17,0.133 0.303,0.303 0.4,0.51c0.097,0.207 0.145,0.457 0.145,0.75l-0.38,0c0,-0.233 -0.038,-0.433 -0.115,-0.6c-0.077,-0.167 -0.183,-0.302 -0.32,-0.405c-0.137,-0.103 -0.298,-0.18 -0.485,-0.23c-0.187,-0.05 -0.387,-0.075 -0.6,-0.075c-0.173,0 -0.348,0.017 -0.525,0.05c-0.177,0.033 -0.335,0.09 -0.475,0.17c-0.14,0.08 -0.255,0.183 -0.345,0.31c-0.09,0.127 -0.135,0.28 -0.135,0.46c0,0.207 0.05,0.373 0.15,0.5c0.1,0.127 0.232,0.228 0.395,0.305c0.163,0.077 0.347,0.138 0.55,0.185c0.203,0.047 0.408,0.093 0.615,0.14c0.253,0.047 0.492,0.102 0.715,0.165c0.223,0.063 0.417,0.15 0.58,0.26c0.163,0.11 0.292,0.252 0.385,0.425c0.093,0.173 0.14,0.393 0.14,0.66c0,0.28 -0.063,0.51 -0.19,0.69c-0.127,0.18 -0.287,0.325 -0.48,0.435c-0.193,0.11 -0.408,0.187 -0.645,0.23c-0.237,0.043 -0.468,0.065 -0.695,0.065c-0.293,0 -0.565,-0.038 -0.815,-0.115c-0.25,-0.077 -0.468,-0.193 -0.655,-0.35c-0.187,-0.157 -0.333,-0.348 -0.44,-0.575c-0.107,-0.227 -0.163,-0.49 -0.17,-0.79l0.38,0Z" style="fill:#aa9fa4;fill-rule:nonzero;"/></g><g><path d="M99.687,122.8l99.714,0" style="fill:none;stroke:#ea304d;stroke-width:0.5px;"/><path d="M99.943,110.37l3.04,0c0.2,0 0.422,0.023 0.665,0.07c0.243,0.047 0.47,0.142 0.68,0.285c0.21,0.143 0.385,0.347 0.525,0.61c0.14,0.263 0.21,0.608 0.21,1.035c0,0.627 -0.193,1.11 -0.58,1.45c-0.387,0.34 -0.94,0.51 -1.66,0.51l-2.44,0l0,3.18l-0.44,0l0,-7.14Zm0.44,3.58l2.51,0c0.32,0 0.592,-0.048 0.815,-0.145c0.223,-0.097 0.402,-0.222 0.535,-0.375c0.133,-0.153 0.23,-0.323 0.29,-0.51c0.06,-0.187 0.09,-0.373 0.09,-0.56c0,-0.133 -0.02,-0.292 -0.06,-0.475c-0.04,-0.183 -0.12,-0.36 -0.24,-0.53c-0.12,-0.17 -0.288,-0.313 -0.505,-0.43c-0.217,-0.117 -0.505,-0.175 -0.865,-0.175l-2.57,0l0,3.2Z" style="fill:#aa9fa4;fill-rule:nonzero;"/><path d="M105.513,114.99l0,0.06c0,0.3 0.04,0.587 0.12,0.86c0.08,0.273 0.198,0.513 0.355,0.72c0.157,0.207 0.353,0.37 0.59,0.49c0.237,0.12 0.512,0.18 0.825,0.18c0.513,0 0.92,-0.135 1.22,-0.405c0.3,-0.27 0.507,-0.645 0.62,-1.125l0.38,0c-0.113,0.6 -0.358,1.06 -0.735,1.38c-0.377,0.32 -0.875,0.48 -1.495,0.48c-0.38,0 -0.712,-0.068 -0.995,-0.205c-0.283,-0.137 -0.52,-0.323 -0.71,-0.56c-0.19,-0.237 -0.332,-0.517 -0.425,-0.84c-0.093,-0.323 -0.14,-0.672 -0.14,-1.045c0,-0.36 0.048,-0.705 0.145,-1.035c0.097,-0.33 0.242,-0.62 0.435,-0.87c0.193,-0.25 0.435,-0.45 0.725,-0.6c0.29,-0.15 0.632,-0.225 1.025,-0.225c0.36,0 0.678,0.067 0.955,0.2c0.277,0.133 0.508,0.315 0.695,0.545c0.187,0.23 0.328,0.497 0.425,0.8c0.097,0.303 0.145,0.628 0.145,0.975c0,0.033 -0.002,0.072 -0.005,0.115c-0.003,0.043 -0.005,0.078 -0.005,0.105l-4.15,0Zm3.77,-0.33c-0.013,-0.28 -0.06,-0.545 -0.14,-0.795c-0.08,-0.25 -0.198,-0.47 -0.355,-0.66c-0.157,-0.19 -0.347,-0.342 -0.57,-0.455c-0.223,-0.113 -0.478,-0.17 -0.765,-0.17c-0.307,0 -0.577,0.058 -0.81,0.175c-0.233,0.117 -0.43,0.27 -0.59,0.46c-0.16,0.19 -0.283,0.412 -0.37,0.665c-0.087,0.253 -0.14,0.513 -0.16,0.78l3.76,0Z" style="fill:#aa9fa4;fill-rule:nonzero;"/><path d="M110.933,113.51l0.03,0c0.047,-0.167 0.132,-0.323 0.255,-0.47c0.123,-0.147 0.273,-0.273 0.45,-0.38c0.177,-0.107 0.373,-0.188 0.59,-0.245c0.217,-0.057 0.442,-0.082 0.675,-0.075l0,0.38c-0.2,-0.027 -0.428,-0.007 -0.685,0.06c-0.257,0.067 -0.502,0.213 -0.735,0.44c-0.093,0.1 -0.175,0.197 -0.245,0.29c-0.07,0.093 -0.128,0.197 -0.175,0.31c-0.047,0.113 -0.083,0.24 -0.11,0.38c-0.027,0.14 -0.043,0.307 -0.05,0.5l0,2.81l-0.38,0l0,-5.14l0.38,0l0,1.14Z" style="fill:#aa9fa4;fill-rule:nonzero;"/><path d="M113.513,115.8c0.013,0.24 0.067,0.452 0.16,0.635c0.093,0.183 0.215,0.34 0.365,0.47c0.15,0.13 0.325,0.228 0.525,0.295c0.2,0.067 0.417,0.1 0.65,0.1c0.167,0 0.345,-0.015 0.535,-0.045c0.19,-0.03 0.367,-0.085 0.53,-0.165c0.163,-0.08 0.298,-0.192 0.405,-0.335c0.107,-0.143 0.16,-0.325 0.16,-0.545c0,-0.287 -0.087,-0.503 -0.26,-0.65c-0.173,-0.147 -0.392,-0.26 -0.655,-0.34c-0.263,-0.08 -0.547,-0.145 -0.85,-0.195c-0.303,-0.05 -0.587,-0.125 -0.85,-0.225c-0.263,-0.1 -0.482,-0.242 -0.655,-0.425c-0.173,-0.183 -0.26,-0.452 -0.26,-0.805c0,-0.253 0.057,-0.465 0.17,-0.635c0.113,-0.17 0.258,-0.305 0.435,-0.405c0.177,-0.1 0.375,-0.172 0.595,-0.215c0.22,-0.043 0.44,-0.065 0.66,-0.065c0.267,0 0.517,0.03 0.75,0.09c0.233,0.06 0.435,0.157 0.605,0.29c0.17,0.133 0.303,0.303 0.4,0.51c0.097,0.207 0.145,0.457 0.145,0.75l-0.38,0c0,-0.233 -0.038,-0.433 -0.115,-0.6c-0.077,-0.167 -0.183,-0.302 -0.32,-0.405c-0.137,-0.103 -0.298,-0.18 -0.485,-0.23c-0.187,-0.05 -0.387,-0.075 -0.6,-0.075c-0.173,0 -0.348,0.017 -0.525,0.05c-0.177,0.033 -0.335,0.09 -0.475,0.17c-0.14,0.08 -0.255,0.183 -0.345,0.31c-0.09,0.127 -0.135,0.28 -0.135,0.46c0,0.207 0.05,0.373 0.15,0.5c0.1,0.127 0.232,0.228 0.395,0.305c0.163,0.077 0.347,0.138 0.55,0.185c0.203,0.047 0.408,0.093 0.615,0.14c0.253,0.047 0.492,0.102 0.715,0.165c0.223,0.063 0.417,0.15 0.58,0.26c0.163,0.11 0.292,0.252 0.385,0.425c0.093,0.173 0.14,0.393 0.14,0.66c0,0.28 -0.063,0.51 -0.19,0.69c-0.127,0.18 -0.287,0.325 -0.48,0.435c-0.193,0.11 -0.408,0.187 -0.645,0.23c-0.237,0.043 -0.468,0.065 -0.695,0.065c-0.293,0 -0.565,-0.038 -0.815,-0.115c-0.25,-0.077 -0.468,-0.193 -0.655,-0.35c-0.187,-0.157 -0.333,-0.348 -0.44,-0.575c-0.107,-0.227 -0.163,-0.49 -0.17,-0.79l0.38,0Z" style="fill:#aa9fa4;fill-rule:nonzero;"/><path d="M117.903,114.94c0,-0.367 0.052,-0.712 0.155,-1.035c0.103,-0.323 0.255,-0.608 0.455,-0.855c0.2,-0.247 0.447,-0.442 0.74,-0.585c0.293,-0.143 0.63,-0.215 1.01,-0.215c0.38,0 0.717,0.072 1.01,0.215c0.293,0.143 0.54,0.338 0.74,0.585c0.2,0.247 0.352,0.532 0.455,0.855c0.103,0.323 0.155,0.668 0.155,1.035c0,0.367 -0.052,0.713 -0.155,1.04c-0.103,0.327 -0.255,0.612 -0.455,0.855c-0.2,0.243 -0.447,0.437 -0.74,0.58c-0.293,0.143 -0.63,0.215 -1.01,0.215c-0.38,0 -0.717,-0.072 -1.01,-0.215c-0.293,-0.143 -0.54,-0.337 -0.74,-0.58c-0.2,-0.243 -0.352,-0.528 -0.455,-0.855c-0.103,-0.327 -0.155,-0.673 -0.155,-1.04Zm0.38,0c0,0.307 0.043,0.602 0.13,0.885c0.087,0.283 0.213,0.535 0.38,0.755c0.167,0.22 0.373,0.395 0.62,0.525c0.247,0.13 0.53,0.195 0.85,0.195c0.32,0 0.603,-0.065 0.85,-0.195c0.247,-0.13 0.453,-0.305 0.62,-0.525c0.167,-0.22 0.293,-0.472 0.38,-0.755c0.087,-0.283 0.13,-0.578 0.13,-0.885c0,-0.307 -0.043,-0.602 -0.13,-0.885c-0.087,-0.283 -0.213,-0.535 -0.38,-0.755c-0.167,-0.22 -0.373,-0.395 -0.62,-0.525c-0.247,-0.13 -0.53,-0.195 -0.85,-0.195c-0.32,0 -0.603,0.065 -0.85,0.195c-0.247,0.13 -0.453,0.305 -0.62,0.525c-0.167,0.22 -0.293,0.472 -0.38,0.755c-0.087,0.283 -0.13,0.578 -0.13,0.885Z" style="fill:#aa9fa4;fill-rule:nonzero;"/><path d="M123.513,112.37l0.38,0l0,1.1l0.02,0c0.067,-0.193 0.162,-0.365 0.285,-0.515c0.123,-0.15 0.267,-0.278 0.43,-0.385c0.163,-0.107 0.342,-0.187 0.535,-0.24c0.193,-0.053 0.39,-0.08 0.59,-0.08c0.3,0 0.555,0.037 0.765,0.11c0.21,0.073 0.382,0.17 0.515,0.29c0.133,0.12 0.238,0.255 0.315,0.405c0.077,0.15 0.132,0.302 0.165,0.455c0.033,0.153 0.053,0.302 0.06,0.445c0.007,0.143 0.01,0.268 0.01,0.375l0,3.18l-0.38,0l0,-3.25c0,-0.127 -0.01,-0.287 -0.03,-0.48c-0.02,-0.193 -0.078,-0.378 -0.175,-0.555c-0.097,-0.177 -0.243,-0.328 -0.44,-0.455c-0.197,-0.127 -0.468,-0.19 -0.815,-0.19c-0.293,0 -0.553,0.053 -0.78,0.16c-0.227,0.107 -0.42,0.255 -0.58,0.445c-0.16,0.19 -0.282,0.417 -0.365,0.68c-0.083,0.263 -0.125,0.552 -0.125,0.865l0,2.78l-0.38,0l0,-5.14Z" style="fill:#aa9fa4;fill-rule:nonzero;"/><path d="M132.113,116.49l-0.02,0c-0.06,0.153 -0.147,0.298 -0.26,0.435c-0.113,0.137 -0.252,0.258 -0.415,0.365c-0.163,0.107 -0.348,0.19 -0.555,0.25c-0.207,0.06 -0.433,0.09 -0.68,0.09c-0.547,0 -0.97,-0.118 -1.27,-0.355c-0.3,-0.237 -0.45,-0.602 -0.45,-1.095c0,-0.3 0.06,-0.545 0.18,-0.735c0.12,-0.19 0.272,-0.34 0.455,-0.45c0.183,-0.11 0.387,-0.188 0.61,-0.235c0.223,-0.047 0.438,-0.08 0.645,-0.1l0.59,-0.05c0.273,-0.02 0.488,-0.052 0.645,-0.095c0.157,-0.043 0.275,-0.103 0.355,-0.18c0.08,-0.077 0.13,-0.175 0.15,-0.295c0.02,-0.12 0.03,-0.27 0.03,-0.45c0,-0.14 -0.027,-0.27 -0.08,-0.39c-0.053,-0.12 -0.137,-0.227 -0.25,-0.32c-0.113,-0.093 -0.26,-0.167 -0.44,-0.22c-0.18,-0.053 -0.4,-0.08 -0.66,-0.08c-0.46,0 -0.832,0.113 -1.115,0.34c-0.283,0.227 -0.438,0.57 -0.465,1.03l-0.38,0c0.027,-0.567 0.208,-0.992 0.545,-1.275c0.337,-0.283 0.815,-0.425 1.435,-0.425c0.62,0 1.072,0.122 1.355,0.365c0.283,0.243 0.425,0.562 0.425,0.955l0,2.99c0,0.073 0.002,0.147 0.005,0.22c0.003,0.073 0.015,0.14 0.035,0.2c0.02,0.06 0.053,0.108 0.1,0.145c0.047,0.037 0.113,0.055 0.2,0.055c0.067,0 0.16,-0.01 0.28,-0.03l0,0.32c-0.1,0.027 -0.203,0.04 -0.31,0.04c-0.153,0 -0.275,-0.02 -0.365,-0.06c-0.09,-0.04 -0.158,-0.093 -0.205,-0.16c-0.047,-0.067 -0.078,-0.145 -0.095,-0.235c-0.017,-0.09 -0.025,-0.188 -0.025,-0.295l0,-0.27Zm0,-1.9c-0.093,0.113 -0.235,0.19 -0.425,0.23c-0.19,0.04 -0.402,0.07 -0.635,0.09l-0.64,0.06c-0.187,0.02 -0.373,0.048 -0.56,0.085c-0.187,0.037 -0.355,0.098 -0.505,0.185c-0.15,0.087 -0.272,0.205 -0.365,0.355c-0.093,0.15 -0.14,0.345 -0.14,0.585c0,0.38 0.12,0.662 0.36,0.845c0.24,0.183 0.57,0.275 0.99,0.275c0.433,0 0.777,-0.078 1.03,-0.235c0.253,-0.157 0.447,-0.337 0.58,-0.54c0.133,-0.203 0.218,-0.4 0.255,-0.59c0.037,-0.19 0.055,-0.318 0.055,-0.385l0,-0.96Z" style="fill:#aa9fa4;fill-rule:nonzero;"/><path d="M136.553,110.37l2.34,0c0.64,0 1.172,0.1 1.595,0.3c0.423,0.2 0.762,0.467 1.015,0.8c0.253,0.333 0.432,0.713 0.535,1.14c0.103,0.427 0.155,0.867 0.155,1.32c0,0.507 -0.065,0.978 -0.195,1.415c-0.13,0.437 -0.332,0.815 -0.605,1.135c-0.273,0.32 -0.618,0.572 -1.035,0.755c-0.417,0.183 -0.912,0.275 -1.485,0.275l-2.32,0l0,-7.14Zm2.36,6.76c0.333,0 0.668,-0.052 1.005,-0.155c0.337,-0.103 0.642,-0.277 0.915,-0.52c0.273,-0.243 0.495,-0.57 0.665,-0.98c0.17,-0.41 0.255,-0.925 0.255,-1.545c0,-0.487 -0.048,-0.903 -0.145,-1.25c-0.097,-0.347 -0.223,-0.638 -0.38,-0.875c-0.157,-0.237 -0.337,-0.423 -0.54,-0.56c-0.203,-0.137 -0.413,-0.242 -0.63,-0.315c-0.217,-0.073 -0.433,-0.122 -0.65,-0.145c-0.217,-0.023 -0.412,-0.035 -0.585,-0.035l-1.83,0l0,6.38l1.92,0Z" style="fill:#aa9fa4;fill-rule:nonzero;"/><path d="M143.303,114.99l0,0.06c0,0.3 0.04,0.587 0.12,0.86c0.08,0.273 0.198,0.513 0.355,0.72c0.157,0.207 0.353,0.37 0.59,0.49c0.237,0.12 0.512,0.18 0.825,0.18c0.513,0 0.92,-0.135 1.22,-0.405c0.3,-0.27 0.507,-0.645 0.62,-1.125l0.38,0c-0.113,0.6 -0.358,1.06 -0.735,1.38c-0.377,0.32 -0.875,0.48 -1.495,0.48c-0.38,0 -0.712,-0.068 -0.995,-0.205c-0.283,-0.137 -0.52,-0.323 -0.71,-0.56c-0.19,-0.237 -0.332,-0.517 -0.425,-0.84c-0.093,-0.323 -0.14,-0.672 -0.14,-1.045c0,-0.36 0.048,-0.705 0.145,-1.035c0.097,-0.33 0.242,-0.62 0.435,-0.87c0.193,-0.25 0.435,-0.45 0.725,-0.6c0.29,-0.15 0.632,-0.225 1.025,-0.225c0.36,0 0.678,0.067 0.955,0.2c0.277,0.133 0.508,0.315 0.695,0.545c0.187,0.23 0.328,0.497 0.425,0.8c0.097,0.303 0.145,0.628 0.145,0.975c0,0.033 -0.002,0.072 -0.005,0.115c-0.003,0.043 -0.005,0.078 -0.005,0.105l-4.15,0Zm3.77,-0.33c-0.013,-0.28 -0.06,-0.545 -0.14,-0.795c-0.08,-0.25 -0.198,-0.47 -0.355,-0.66c-0.157,-0.19 -0.347,-0.342 -0.57,-0.455c-0.223,-0.113 -0.478,-0.17 -0.765,-0.17c-0.307,0 -0.577,0.058 -0.81,0.175c-0.233,0.117 -0.43,0.27 -0.59,0.46c-0.16,0.19 -0.283,0.412 -0.37,0.665c-0.087,0.253 -0.14,0.513 -0.16,0.78l3.76,0Z" style="fill:#aa9fa4;fill-rule:nonzero;"/><path d="M150.303,117.51l-0.47,0l-2.07,-5.14l0.44,0l1.86,4.7l0.02,0l1.74,-4.7l0.42,0l-1.94,5.14Z" style="fill:#aa9fa4;fill-rule:nonzero;"/><path d="M152.933,114.99l0,0.06c0,0.3 0.04,0.587 0.12,0.86c0.08,0.273 0.198,0.513 0.355,0.72c0.157,0.207 0.353,0.37 0.59,0.49c0.237,0.12 0.512,0.18 0.825,0.18c0.513,0 0.92,-0.135 1.22,-0.405c0.3,-0.27 0.507,-0.645 0.62,-1.125l0.38,0c-0.113,0.6 -0.358,1.06 -0.735,1.38c-0.377,0.32 -0.875,0.48 -1.495,0.48c-0.38,0 -0.712,-0.068 -0.995,-0.205c-0.283,-0.137 -0.52,-0.323 -0.71,-0.56c-0.19,-0.237 -0.332,-0.517 -0.425,-0.84c-0.093,-0.323 -0.14,-0.672 -0.14,-1.045c0,-0.36 0.048,-0.705 0.145,-1.035c0.097,-0.33 0.242,-0.62 0.435,-0.87c0.193,-0.25 0.435,-0.45 0.725,-0.6c0.29,-0.15 0.632,-0.225 1.025,-0.225c0.36,0 0.678,0.067 0.955,0.2c0.277,0.133 0.508,0.315 0.695,0.545c0.187,0.23 0.328,0.497 0.425,0.8c0.097,0.303 0.145,0.628 0.145,0.975c0,0.033 -0.002,0.072 -0.005,0.115c-0.003,0.043 -0.005,0.078 -0.005,0.105l-4.15,0Zm3.77,-0.33c-0.013,-0.28 -0.06,-0.545 -0.14,-0.795c-0.08,-0.25 -0.198,-0.47 -0.355,-0.66c-0.157,-0.19 -0.347,-0.342 -0.57,-0.455c-0.223,-0.113 -0.478,-0.17 -0.765,-0.17c-0.307,0 -0.577,0.058 -0.81,0.175c-0.233,0.117 -0.43,0.27 -0.59,0.46c-0.16,0.19 -0.283,0.412 -0.37,0.665c-0.087,0.253 -0.14,0.513 -0.16,0.78l3.76,0Z" style="fill:#aa9fa4;fill-rule:nonzero;"/><rect x="158.063" y="110.37" width="0.38" height="7.14" style="fill:#aa9fa4;fill-rule:nonzero;"/><path d="M159.413,114.94c0,-0.367 0.052,-0.712 0.155,-1.035c0.103,-0.323 0.255,-0.608 0.455,-0.855c0.2,-0.247 0.447,-0.442 0.74,-0.585c0.293,-0.143 0.63,-0.215 1.01,-0.215c0.38,0 0.717,0.072 1.01,0.215c0.293,0.143 0.54,0.338 0.74,0.585c0.2,0.247 0.352,0.532 0.455,0.855c0.103,0.323 0.155,0.668 0.155,1.035c0,0.367 -0.052,0.713 -0.155,1.04c-0.103,0.327 -0.255,0.612 -0.455,0.855c-0.2,0.243 -0.447,0.437 -0.74,0.58c-0.293,0.143 -0.63,0.215 -1.01,0.215c-0.38,0 -0.717,-0.072 -1.01,-0.215c-0.293,-0.143 -0.54,-0.337 -0.74,-0.58c-0.2,-0.243 -0.352,-0.528 -0.455,-0.855c-0.103,-0.327 -0.155,-0.673 -0.155,-1.04Zm0.38,0c0,0.307 0.043,0.602 0.13,0.885c0.087,0.283 0.213,0.535 0.38,0.755c0.167,0.22 0.373,0.395 0.62,0.525c0.247,0.13 0.53,0.195 0.85,0.195c0.32,0 0.603,-0.065 0.85,-0.195c0.247,-0.13 0.453,-0.305 0.62,-0.525c0.167,-0.22 0.293,-0.472 0.38,-0.755c0.087,-0.283 0.13,-0.578 0.13,-0.885c0,-0.307 -0.043,-0.602 -0.13,-0.885c-0.087,-0.283 -0.213,-0.535 -0.38,-0.755c-0.167,-0.22 -0.373,-0.395 -0.62,-0.525c-0.247,-0.13 -0.53,-0.195 -0.85,-0.195c-0.32,0 -0.603,0.065 -0.85,0.195c-0.247,0.13 -0.453,0.305 -0.62,0.525c-0.167,0.22 -0.293,0.472 -0.38,0.755c-0.087,0.283 -0.13,0.578 -0.13,0.885Z" style="fill:#aa9fa4;fill-rule:nonzero;"/><path d="M165.493,113.55l0.02,0c0.04,-0.127 0.107,-0.267 0.2,-0.42c0.093,-0.153 0.217,-0.295 0.37,-0.425c0.153,-0.13 0.338,-0.238 0.555,-0.325c0.217,-0.087 0.465,-0.13 0.745,-0.13c0.393,0 0.735,0.073 1.025,0.22c0.29,0.147 0.53,0.343 0.72,0.59c0.19,0.247 0.332,0.533 0.425,0.86c0.093,0.327 0.14,0.67 0.14,1.03c0,0.393 -0.047,0.753 -0.14,1.08c-0.093,0.327 -0.235,0.608 -0.425,0.845c-0.19,0.237 -0.43,0.422 -0.72,0.555c-0.29,0.133 -0.632,0.2 -1.025,0.2c-0.427,0 -0.807,-0.093 -1.14,-0.28c-0.333,-0.187 -0.577,-0.49 -0.73,-0.91l-0.02,0l0,2.91l-0.38,0l0,-6.98l0.38,0l0,1.18Zm1.89,3.75c0.333,0 0.622,-0.063 0.865,-0.19c0.243,-0.127 0.443,-0.297 0.6,-0.51c0.157,-0.213 0.273,-0.462 0.35,-0.745c0.077,-0.283 0.115,-0.585 0.115,-0.905c0,-0.293 -0.037,-0.582 -0.11,-0.865c-0.073,-0.283 -0.187,-0.537 -0.34,-0.76c-0.153,-0.223 -0.352,-0.403 -0.595,-0.54c-0.243,-0.137 -0.538,-0.205 -0.885,-0.205c-0.34,0 -0.63,0.067 -0.87,0.2c-0.24,0.133 -0.435,0.31 -0.585,0.53c-0.15,0.22 -0.258,0.472 -0.325,0.755c-0.067,0.283 -0.1,0.578 -0.1,0.885c0,0.307 0.03,0.602 0.09,0.885c0.06,0.283 0.162,0.533 0.305,0.75c0.143,0.217 0.337,0.39 0.58,0.52c0.243,0.13 0.545,0.195 0.905,0.195Z" style="fill:#aa9fa4;fill-rule:nonzero;"/><path d="M170.593,112.37l0.38,0l0,1.05l0.02,0c0.04,-0.16 0.11,-0.312 0.21,-0.455c0.1,-0.143 0.222,-0.268 0.365,-0.375c0.143,-0.107 0.303,-0.19 0.48,-0.25c0.177,-0.06 0.362,-0.09 0.555,-0.09c0.247,0 0.46,0.032 0.64,0.095c0.18,0.063 0.333,0.147 0.46,0.25c0.127,0.103 0.227,0.22 0.3,0.35c0.073,0.13 0.123,0.262 0.15,0.395l0.02,0c0.153,-0.36 0.358,-0.632 0.615,-0.815c0.257,-0.183 0.595,-0.275 1.015,-0.275c0.233,0 0.448,0.035 0.645,0.105c0.197,0.07 0.367,0.177 0.51,0.32c0.143,0.143 0.255,0.325 0.335,0.545c0.08,0.22 0.12,0.48 0.12,0.78l0,3.51l-0.38,0l0,-3.52c0,-0.327 -0.05,-0.583 -0.15,-0.77c-0.1,-0.187 -0.218,-0.328 -0.355,-0.425c-0.137,-0.097 -0.273,-0.157 -0.41,-0.18c-0.137,-0.023 -0.242,-0.035 -0.315,-0.035c-0.233,0 -0.448,0.04 -0.645,0.12c-0.197,0.08 -0.367,0.2 -0.51,0.36c-0.143,0.16 -0.255,0.358 -0.335,0.595c-0.08,0.237 -0.12,0.508 -0.12,0.815l0,3.04l-0.38,0l0,-3.52c0,-0.32 -0.048,-0.575 -0.145,-0.765c-0.097,-0.19 -0.21,-0.332 -0.34,-0.425c-0.13,-0.093 -0.263,-0.153 -0.4,-0.18c-0.137,-0.027 -0.245,-0.04 -0.325,-0.04c-0.18,0 -0.367,0.037 -0.56,0.11c-0.193,0.073 -0.37,0.187 -0.53,0.34c-0.16,0.153 -0.29,0.35 -0.39,0.59c-0.1,0.24 -0.15,0.523 -0.15,0.85l0,3.04l-0.38,0l0,-5.14Z" style="fill:#aa9fa4;fill-rule:nonzero;"/><path d="M178.693,114.99l0,0.06c0,0.3 0.04,0.587 0.12,0.86c0.08,0.273 0.198,0.513 0.355,0.72c0.157,0.207 0.353,0.37 0.59,0.49c0.237,0.12 0.512,0.18 0.825,0.18c0.513,0 0.92,-0.135 1.22,-0.405c0.3,-0.27 0.507,-0.645 0.62,-1.125l0.38,0c-0.113,0.6 -0.358,1.06 -0.735,1.38c-0.377,0.32 -0.875,0.48 -1.495,0.48c-0.38,0 -0.712,-0.068 -0.995,-0.205c-0.283,-0.137 -0.52,-0.323 -0.71,-0.56c-0.19,-0.237 -0.332,-0.517 -0.425,-0.84c-0.093,-0.323 -0.14,-0.672 -0.14,-1.045c0,-0.36 0.048,-0.705 0.145,-1.035c0.097,-0.33 0.242,-0.62 0.435,-0.87c0.193,-0.25 0.435,-0.45 0.725,-0.6c0.29,-0.15 0.632,-0.225 1.025,-0.225c0.36,0 0.678,0.067 0.955,0.2c0.277,0.133 0.508,0.315 0.695,0.545c0.187,0.23 0.328,0.497 0.425,0.8c0.097,0.303 0.145,0.628 0.145,0.975c0,0.033 -0.002,0.072 -0.005,0.115c-0.003,0.043 -0.005,0.078 -0.005,0.105l-4.15,0Zm3.77,-0.33c-0.013,-0.28 -0.06,-0.545 -0.14,-0.795c-0.08,-0.25 -0.198,-0.47 -0.355,-0.66c-0.157,-0.19 -0.347,-0.342 -0.57,-0.455c-0.223,-0.113 -0.478,-0.17 -0.765,-0.17c-0.307,0 -0.577,0.058 -0.81,0.175c-0.233,0.117 -0.43,0.27 -0.59,0.46c-0.16,0.19 -0.283,0.412 -0.37,0.665c-0.087,0.253 -0.14,0.513 -0.16,0.78l3.76,0Z" style="fill:#aa9fa4;fill-rule:nonzero;"/><path d="M183.733,112.37l0.38,0l0,1.1l0.02,0c0.067,-0.193 0.162,-0.365 0.285,-0.515c0.123,-0.15 0.267,-0.278 0.43,-0.385c0.163,-0.107 0.342,-0.187 0.535,-0.24c0.193,-0.053 0.39,-0.08 0.59,-0.08c0.3,0 0.555,0.037 0.765,0.11c0.21,0.073 0.382,0.17 0.515,0.29c0.133,0.12 0.238,0.255 0.315,0.405c0.077,0.15 0.132,0.302 0.165,0.455c0.033,0.153 0.053,0.302 0.06,0.445c0.007,0.143 0.01,0.268 0.01,0.375l0,3.18l-0.38,0l0,-3.25c0,-0.127 -0.01,-0.287 -0.03,-0.48c-0.02,-0.193 -0.078,-0.378 -0.175,-0.555c-0.097,-0.177 -0.243,-0.328 -0.44,-0.455c-0.197,-0.127 -0.468,-0.19 -0.815,-0.19c-0.293,0 -0.553,0.053 -0.78,0.16c-0.227,0.107 -0.42,0.255 -0.58,0.445c-0.16,0.19 -0.282,0.417 -0.365,0.68c-0.083,0.263 -0.125,0.552 -0.125,0.865l0,2.78l-0.38,0l0,-5.14Z" style="fill:#aa9fa4;fill-rule:nonzero;"/><path d="M190.813,112.7l-1.12,0l0,3.59c0,0.207 0.023,0.37 0.07,0.49c0.047,0.12 0.118,0.212 0.215,0.275c0.097,0.063 0.213,0.102 0.35,0.115c0.137,0.013 0.295,0.017 0.475,0.01l0,0.33c-0.193,0.013 -0.382,0.012 -0.565,-0.005c-0.183,-0.017 -0.345,-0.067 -0.485,-0.15c-0.14,-0.083 -0.252,-0.208 -0.335,-0.375c-0.083,-0.167 -0.118,-0.397 -0.105,-0.69l0,-3.59l-0.95,0l0,-0.33l0.95,0l0,-1.6l0.38,0l0,1.6l1.12,0l0,0.33Z" style="fill:#aa9fa4;fill-rule:nonzero;"/></g><g><path d="M100,152.39l50.126,0" style="fill:none;stroke:#ea304d;stroke-width:0.5px;"/><path d="M100.283,139.96l0.63,0l2.79,6.65l0.02,0l2.76,-6.65l0.63,0l0,7.14l-0.44,0l0,-6.6l-0.02,0l-2.72,6.6l-0.44,0l-2.75,-6.6l-0.02,0l0,6.6l-0.44,0l0,-7.14Z" style="fill:#aa9fa4;fill-rule:nonzero;"/><path d="M108.063,144.53c0,-0.367 0.052,-0.712 0.155,-1.035c0.103,-0.323 0.255,-0.608 0.455,-0.855c0.2,-0.247 0.447,-0.442 0.74,-0.585c0.293,-0.143 0.63,-0.215 1.01,-0.215c0.38,0 0.717,0.072 1.01,0.215c0.293,0.143 0.54,0.338 0.74,0.585c0.2,0.247 0.352,0.532 0.455,0.855c0.103,0.323 0.155,0.668 0.155,1.035c0,0.367 -0.052,0.713 -0.155,1.04c-0.103,0.327 -0.255,0.612 -0.455,0.855c-0.2,0.243 -0.447,0.437 -0.74,0.58c-0.293,0.143 -0.63,0.215 -1.01,0.215c-0.38,0 -0.717,-0.072 -1.01,-0.215c-0.293,-0.143 -0.54,-0.337 -0.74,-0.58c-0.2,-0.243 -0.352,-0.528 -0.455,-0.855c-0.103,-0.327 -0.155,-0.673 -0.155,-1.04Zm0.38,0c0,0.307 0.043,0.602 0.13,0.885c0.087,0.283 0.213,0.535 0.38,0.755c0.167,0.22 0.373,0.395 0.62,0.525c0.247,0.13 0.53,0.195 0.85,0.195c0.32,0 0.603,-0.065 0.85,-0.195c0.247,-0.13 0.453,-0.305 0.62,-0.525c0.167,-0.22 0.293,-0.472 0.38,-0.755c0.087,-0.283 0.13,-0.578 0.13,-0.885c0,-0.307 -0.043,-0.602 -0.13,-0.885c-0.087,-0.283 -0.213,-0.535 -0.38,-0.755c-0.167,-0.22 -0.373,-0.395 -0.62,-0.525c-0.247,-0.13 -0.53,-0.195 -0.85,-0.195c-0.32,0 -0.603,0.065 -0.85,0.195c-0.247,0.13 -0.453,0.305 -0.62,0.525c-0.167,0.22 -0.293,0.472 -0.38,0.755c-0.087,0.283 -0.13,0.578 -0.13,0.885Z" style="fill:#aa9fa4;fill-rule:nonzero;"/><path d="M117.543,143.55c-0.02,-0.227 -0.078,-0.427 -0.175,-0.6c-0.097,-0.173 -0.222,-0.317 -0.375,-0.43c-0.153,-0.113 -0.332,-0.2 -0.535,-0.26c-0.203,-0.06 -0.422,-0.09 -0.655,-0.09c-0.32,0 -0.603,0.065 -0.85,0.195c-0.247,0.13 -0.453,0.303 -0.62,0.52c-0.167,0.217 -0.293,0.463 -0.38,0.74c-0.087,0.277 -0.13,0.562 -0.13,0.855c0,0.347 0.04,0.667 0.12,0.96c0.08,0.293 0.203,0.548 0.37,0.765c0.167,0.217 0.373,0.385 0.62,0.505c0.247,0.12 0.537,0.18 0.87,0.18c0.24,0 0.462,-0.04 0.665,-0.12c0.203,-0.08 0.383,-0.19 0.54,-0.33c0.157,-0.14 0.285,-0.308 0.385,-0.505c0.1,-0.197 0.167,-0.412 0.2,-0.645l0.38,0c-0.04,0.307 -0.123,0.58 -0.25,0.82c-0.127,0.24 -0.287,0.442 -0.48,0.605c-0.193,0.163 -0.413,0.288 -0.66,0.375c-0.247,0.087 -0.507,0.13 -0.78,0.13c-0.42,0 -0.778,-0.075 -1.075,-0.225c-0.297,-0.15 -0.54,-0.352 -0.73,-0.605c-0.19,-0.253 -0.33,-0.545 -0.42,-0.875c-0.09,-0.33 -0.135,-0.675 -0.135,-1.035c0,-0.36 0.052,-0.7 0.155,-1.02c0.103,-0.32 0.255,-0.6 0.455,-0.84c0.2,-0.24 0.447,-0.43 0.74,-0.57c0.293,-0.14 0.63,-0.21 1.01,-0.21c0.28,0 0.542,0.035 0.785,0.105c0.243,0.07 0.46,0.175 0.65,0.315c0.19,0.14 0.345,0.318 0.465,0.535c0.12,0.217 0.193,0.468 0.22,0.755l-0.38,0Z" style="fill:#aa9fa4;fill-rule:nonzero;"/><path d="M118.883,139.96l0.38,0l0,4.73l3.17,-2.73l0.55,0l-2.25,1.92l2.41,3.22l-0.52,0l-2.19,-2.93l-1.17,0.99l0,1.94l-0.38,0l0,-7.14Z" style="fill:#aa9fa4;fill-rule:nonzero;"/><rect x="123.623" y="144.19" width="2.14" height="0.38" style="fill:#aa9fa4;fill-rule:nonzero;"/><path d="M127.523,139.96l0,4.28c0,0.14 0.007,0.303 0.02,0.49c0.013,0.187 0.047,0.378 0.1,0.575c0.053,0.197 0.128,0.39 0.225,0.58c0.097,0.19 0.228,0.36 0.395,0.51c0.167,0.15 0.372,0.27 0.615,0.36c0.243,0.09 0.538,0.135 0.885,0.135c0.44,0 0.808,-0.062 1.105,-0.185c0.297,-0.123 0.537,-0.3 0.72,-0.53c0.183,-0.23 0.315,-0.508 0.395,-0.835c0.08,-0.327 0.12,-0.693 0.12,-1.1l0,-4.28l0.44,0l0,4.28c0,0.427 -0.045,0.823 -0.135,1.19c-0.09,0.367 -0.242,0.687 -0.455,0.96c-0.213,0.273 -0.498,0.488 -0.855,0.645c-0.357,0.157 -0.802,0.235 -1.335,0.235c-0.42,0 -0.78,-0.053 -1.08,-0.16c-0.3,-0.107 -0.548,-0.245 -0.745,-0.415c-0.197,-0.17 -0.352,-0.365 -0.465,-0.585c-0.113,-0.22 -0.2,-0.442 -0.26,-0.665c-0.06,-0.223 -0.097,-0.44 -0.11,-0.65c-0.013,-0.21 -0.02,-0.395 -0.02,-0.555l0,-4.28l0.44,0Z" style="fill:#aa9fa4;fill-rule:nonzero;"/><path d="M134.203,143.14l0.02,0c0.04,-0.127 0.107,-0.267 0.2,-0.42c0.093,-0.153 0.217,-0.295 0.37,-0.425c0.153,-0.13 0.338,-0.238 0.555,-0.325c0.217,-0.087 0.465,-0.13 0.745,-0.13c0.393,0 0.735,0.073 1.025,0.22c0.29,0.147 0.53,0.343 0.72,0.59c0.19,0.247 0.332,0.533 0.425,0.86c0.093,0.327 0.14,0.67 0.14,1.03c0,0.393 -0.047,0.753 -0.14,1.08c-0.093,0.327 -0.235,0.608 -0.425,0.845c-0.19,0.237 -0.43,0.422 -0.72,0.555c-0.29,0.133 -0.632,0.2 -1.025,0.2c-0.427,0 -0.807,-0.093 -1.14,-0.28c-0.333,-0.187 -0.577,-0.49 -0.73,-0.91l-0.02,0l0,2.91l-0.38,0l0,-6.98l0.38,0l0,1.18Zm1.89,3.75c0.333,0 0.622,-0.063 0.865,-0.19c0.243,-0.127 0.443,-0.297 0.6,-0.51c0.157,-0.213 0.273,-0.462 0.35,-0.745c0.077,-0.283 0.115,-0.585 0.115,-0.905c0,-0.293 -0.037,-0.582 -0.11,-0.865c-0.073,-0.283 -0.187,-0.537 -0.34,-0.76c-0.153,-0.223 -0.352,-0.403 -0.595,-0.54c-0.243,-0.137 -0.538,-0.205 -0.885,-0.205c-0.34,0 -0.63,0.067 -0.87,0.2c-0.24,0.133 -0.435,0.31 -0.585,0.53c-0.15,0.22 -0.258,0.472 -0.325,0.755c-0.067,0.283 -0.1,0.578 -0.1,0.885c0,0.307 0.03,0.602 0.09,0.885c0.06,0.283 0.162,0.533 0.305,0.75c0.143,0.217 0.337,0.39 0.58,0.52c0.243,0.13 0.545,0.195 0.905,0.195Z" style="fill:#aa9fa4;fill-rule:nonzero;"/><path d="M139.473,145.39c0.013,0.24 0.067,0.452 0.16,0.635c0.093,0.183 0.215,0.34 0.365,0.47c0.15,0.13 0.325,0.228 0.525,0.295c0.2,0.067 0.417,0.1 0.65,0.1c0.167,0 0.345,-0.015 0.535,-0.045c0.19,-0.03 0.367,-0.085 0.53,-0.165c0.163,-0.08 0.298,-0.192 0.405,-0.335c0.107,-0.143 0.16,-0.325 0.16,-0.545c0,-0.287 -0.087,-0.503 -0.26,-0.65c-0.173,-0.147 -0.392,-0.26 -0.655,-0.34c-0.263,-0.08 -0.547,-0.145 -0.85,-0.195c-0.303,-0.05 -0.587,-0.125 -0.85,-0.225c-0.263,-0.1 -0.482,-0.242 -0.655,-0.425c-0.173,-0.183 -0.26,-0.452 -0.26,-0.805c0,-0.253 0.057,-0.465 0.17,-0.635c0.113,-0.17 0.258,-0.305 0.435,-0.405c0.177,-0.1 0.375,-0.172 0.595,-0.215c0.22,-0.043 0.44,-0.065 0.66,-0.065c0.267,0 0.517,0.03 0.75,0.09c0.233,0.06 0.435,0.157 0.605,0.29c0.17,0.133 0.303,0.303 0.4,0.51c0.097,0.207 0.145,0.457 0.145,0.75l-0.38,0c0,-0.233 -0.038,-0.433 -0.115,-0.6c-0.077,-0.167 -0.183,-0.302 -0.32,-0.405c-0.137,-0.103 -0.298,-0.18 -0.485,-0.23c-0.187,-0.05 -0.387,-0.075 -0.6,-0.075c-0.173,0 -0.348,0.017 -0.525,0.05c-0.177,0.033 -0.335,0.09 -0.475,0.17c-0.14,0.08 -0.255,0.183 -0.345,0.31c-0.09,0.127 -0.135,0.28 -0.135,0.46c0,0.207 0.05,0.373 0.15,0.5c0.1,0.127 0.232,0.228 0.395,0.305c0.163,0.077 0.347,0.138 0.55,0.185c0.203,0.047 0.408,0.093 0.615,0.14c0.253,0.047 0.492,0.102 0.715,0.165c0.223,0.063 0.417,0.15 0.58,0.26c0.163,0.11 0.292,0.252 0.385,0.425c0.093,0.173 0.14,0.393 0.14,0.66c0,0.28 -0.063,0.51 -0.19,0.69c-0.127,0.18 -0.287,0.325 -0.48,0.435c-0.193,0.11 -0.408,0.187 -0.645,0.23c-0.237,0.043 -0.468,0.065 -0.695,0.065c-0.293,0 -0.565,-0.038 -0.815,-0.115c-0.25,-0.077 -0.468,-0.193 -0.655,-0.35c-0.187,-0.157 -0.333,-0.348 -0.44,-0.575c-0.107,-0.227 -0.163,-0.49 -0.17,-0.79l0.38,0Z" style="fill:#aa9fa4;fill-rule:nonzero;"/></g><g><path d="M100.157,181.98l43.686,0" style="fill:none;stroke:#ea304d;stroke-width:0.5px;"/><path d="M99.874,169.55l3.04,0c0.2,0 0.422,0.023 0.665,0.07c0.243,0.047 0.47,0.142 0.68,0.285c0.21,0.143 0.385,0.347 0.525,0.61c0.14,0.263 0.21,0.608 0.21,1.035c0,0.627 -0.193,1.11 -0.58,1.45c-0.387,0.34 -0.94,0.51 -1.66,0.51l-2.44,0l0,3.18l-0.44,0l0,-7.14Zm0.44,3.58l2.51,0c0.32,0 0.592,-0.048 0.815,-0.145c0.223,-0.097 0.402,-0.222 0.535,-0.375c0.133,-0.153 0.23,-0.323 0.29,-0.51c0.06,-0.187 0.09,-0.373 0.09,-0.56c0,-0.133 -0.02,-0.292 -0.06,-0.475c-0.04,-0.183 -0.12,-0.36 -0.24,-0.53c-0.12,-0.17 -0.288,-0.313 -0.505,-0.43c-0.217,-0.117 -0.505,-0.175 -0.865,-0.175l-2.57,0l0,3.2Z" style="fill:#aa9fa4;fill-rule:nonzero;"/><path d="M105.894,172.69l0.03,0c0.047,-0.167 0.132,-0.323 0.255,-0.47c0.123,-0.147 0.273,-0.273 0.45,-0.38c0.177,-0.107 0.373,-0.188 0.59,-0.245c0.217,-0.057 0.442,-0.082 0.675,-0.075l0,0.38c-0.2,-0.027 -0.428,-0.007 -0.685,0.06c-0.257,0.067 -0.502,0.213 -0.735,0.44c-0.093,0.1 -0.175,0.197 -0.245,0.29c-0.07,0.093 -0.128,0.197 -0.175,0.31c-0.047,0.113 -0.083,0.24 -0.11,0.38c-0.027,0.14 -0.043,0.307 -0.05,0.5l0,2.81l-0.38,0l0,-5.14l0.38,0l0,1.14Z" style="fill:#aa9fa4;fill-rule:nonzero;"/><path d="M107.934,174.12c0,-0.367 0.052,-0.712 0.155,-1.035c0.103,-0.323 0.255,-0.608 0.455,-0.855c0.2,-0.247 0.447,-0.442 0.74,-0.585c0.293,-0.143 0.63,-0.215 1.01,-0.215c0.38,0 0.717,0.072 1.01,0.215c0.293,0.143 0.54,0.338 0.74,0.585c0.2,0.247 0.352,0.532 0.455,0.855c0.103,0.323 0.155,0.668 0.155,1.035c0,0.367 -0.052,0.713 -0.155,1.04c-0.103,0.327 -0.255,0.612 -0.455,0.855c-0.2,0.243 -0.447,0.437 -0.74,0.58c-0.293,0.143 -0.63,0.215 -1.01,0.215c-0.38,0 -0.717,-0.072 -1.01,-0.215c-0.293,-0.143 -0.54,-0.337 -0.74,-0.58c-0.2,-0.243 -0.352,-0.528 -0.455,-0.855c-0.103,-0.327 -0.155,-0.673 -0.155,-1.04Zm0.38,0c0,0.307 0.043,0.602 0.13,0.885c0.087,0.283 0.213,0.535 0.38,0.755c0.167,0.22 0.373,0.395 0.62,0.525c0.247,0.13 0.53,0.195 0.85,0.195c0.32,0 0.603,-0.065 0.85,-0.195c0.247,-0.13 0.453,-0.305 0.62,-0.525c0.167,-0.22 0.293,-0.472 0.38,-0.755c0.087,-0.283 0.13,-0.578 0.13,-0.885c0,-0.307 -0.043,-0.602 -0.13,-0.885c-0.087,-0.283 -0.213,-0.535 -0.38,-0.755c-0.167,-0.22 -0.373,-0.395 -0.62,-0.525c-0.247,-0.13 -0.53,-0.195 -0.85,-0.195c-0.32,0 -0.603,0.065 -0.85,0.195c-0.247,0.13 -0.453,0.305 -0.62,0.525c-0.167,0.22 -0.293,0.472 -0.38,0.755c-0.087,0.283 -0.13,0.578 -0.13,0.885Z" style="fill:#aa9fa4;fill-rule:nonzero;"/><path d="M115.434,171.88l-1.12,0l0,3.59c0,0.207 0.023,0.37 0.07,0.49c0.047,0.12 0.118,0.212 0.215,0.275c0.097,0.063 0.213,0.102 0.35,0.115c0.137,0.013 0.295,0.017 0.475,0.01l0,0.33c-0.193,0.013 -0.382,0.012 -0.565,-0.005c-0.183,-0.017 -0.345,-0.067 -0.485,-0.15c-0.14,-0.083 -0.252,-0.208 -0.335,-0.375c-0.083,-0.167 -0.118,-0.397 -0.105,-0.69l0,-3.59l-0.95,0l0,-0.33l0.95,0l0,-1.6l0.38,0l0,1.6l1.12,0l0,0.33Z" style="fill:#aa9fa4;fill-rule:nonzero;"/><path d="M115.754,174.12c0,-0.367 0.052,-0.712 0.155,-1.035c0.103,-0.323 0.255,-0.608 0.455,-0.855c0.2,-0.247 0.447,-0.442 0.74,-0.585c0.293,-0.143 0.63,-0.215 1.01,-0.215c0.38,0 0.717,0.072 1.01,0.215c0.293,0.143 0.54,0.338 0.74,0.585c0.2,0.247 0.352,0.532 0.455,0.855c0.103,0.323 0.155,0.668 0.155,1.035c0,0.367 -0.052,0.713 -0.155,1.04c-0.103,0.327 -0.255,0.612 -0.455,0.855c-0.2,0.243 -0.447,0.437 -0.74,0.58c-0.293,0.143 -0.63,0.215 -1.01,0.215c-0.38,0 -0.717,-0.072 -1.01,-0.215c-0.293,-0.143 -0.54,-0.337 -0.74,-0.58c-0.2,-0.243 -0.352,-0.528 -0.455,-0.855c-0.103,-0.327 -0.155,-0.673 -0.155,-1.04Zm0.38,0c0,0.307 0.043,0.602 0.13,0.885c0.087,0.283 0.213,0.535 0.38,0.755c0.167,0.22 0.373,0.395 0.62,0.525c0.247,0.13 0.53,0.195 0.85,0.195c0.32,0 0.603,-0.065 0.85,-0.195c0.247,-0.13 0.453,-0.305 0.62,-0.525c0.167,-0.22 0.293,-0.472 0.38,-0.755c0.087,-0.283 0.13,-0.578 0.13,-0.885c0,-0.307 -0.043,-0.602 -0.13,-0.885c-0.087,-0.283 -0.213,-0.535 -0.38,-0.755c-0.167,-0.22 -0.373,-0.395 -0.62,-0.525c-0.247,-0.13 -0.53,-0.195 -0.85,-0.195c-0.32,0 -0.603,0.065 -0.85,0.195c-0.247,0.13 -0.453,0.305 -0.62,0.525c-0.167,0.22 -0.293,0.472 -0.38,0.755c-0.087,0.283 -0.13,0.578 -0.13,0.885Z" style="fill:#aa9fa4;fill-rule:nonzero;"/><path d="M123.254,171.88l-1.12,0l0,3.59c0,0.207 0.023,0.37 0.07,0.49c0.047,0.12 0.118,0.212 0.215,0.275c0.097,0.063 0.213,0.102 0.35,0.115c0.137,0.013 0.295,0.017 0.475,0.01l0,0.33c-0.193,0.013 -0.382,0.012 -0.565,-0.005c-0.183,-0.017 -0.345,-0.067 -0.485,-0.15c-0.14,-0.083 -0.252,-0.208 -0.335,-0.375c-0.083,-0.167 -0.118,-0.397 -0.105,-0.69l0,-3.59l-0.95,0l0,-0.33l0.95,0l0,-1.6l0.38,0l0,1.6l1.12,0l0,0.33Z" style="fill:#aa9fa4;fill-rule:nonzero;"/><path d="M123.334,171.55l0.45,0l1.91,4.69l1.76,-4.69l0.43,0l-2.2,5.69c-0.107,0.253 -0.205,0.472 -0.295,0.655c-0.09,0.183 -0.192,0.318 -0.305,0.405c-0.133,0.107 -0.292,0.172 -0.475,0.195c-0.183,0.023 -0.425,0.035 -0.725,0.035l0,-0.33c0.273,0 0.487,-0.022 0.64,-0.065c0.153,-0.043 0.297,-0.132 0.43,-0.265c0.073,-0.073 0.15,-0.208 0.23,-0.405c0.08,-0.197 0.18,-0.465 0.3,-0.805l-2.15,-5.11Z" style="fill:#aa9fa4;fill-rule:nonzero;"/><path d="M128.864,172.73l0.02,0c0.04,-0.127 0.107,-0.267 0.2,-0.42c0.093,-0.153 0.217,-0.295 0.37,-0.425c0.153,-0.13 0.338,-0.238 0.555,-0.325c0.217,-0.087 0.465,-0.13 0.745,-0.13c0.393,0 0.735,0.073 1.025,0.22c0.29,0.147 0.53,0.343 0.72,0.59c0.19,0.247 0.332,0.533 0.425,0.86c0.093,0.327 0.14,0.67 0.14,1.03c0,0.393 -0.047,0.753 -0.14,1.08c-0.093,0.327 -0.235,0.608 -0.425,0.845c-0.19,0.237 -0.43,0.422 -0.72,0.555c-0.29,0.133 -0.632,0.2 -1.025,0.2c-0.427,0 -0.807,-0.093 -1.14,-0.28c-0.333,-0.187 -0.577,-0.49 -0.73,-0.91l-0.02,0l0,2.91l-0.38,0l0,-6.98l0.38,0l0,1.18Zm1.89,3.75c0.333,0 0.622,-0.063 0.865,-0.19c0.243,-0.127 0.443,-0.297 0.6,-0.51c0.157,-0.213 0.273,-0.462 0.35,-0.745c0.077,-0.283 0.115,-0.585 0.115,-0.905c0,-0.293 -0.037,-0.582 -0.11,-0.865c-0.073,-0.283 -0.187,-0.537 -0.34,-0.76c-0.153,-0.223 -0.352,-0.403 -0.595,-0.54c-0.243,-0.137 -0.538,-0.205 -0.885,-0.205c-0.34,0 -0.63,0.067 -0.87,0.2c-0.24,0.133 -0.435,0.31 -0.585,0.53c-0.15,0.22 -0.258,0.472 -0.325,0.755c-0.067,0.283 -0.1,0.578 -0.1,0.885c0,0.307 0.03,0.602 0.09,0.885c0.06,0.283 0.162,0.533 0.305,0.75c0.143,0.217 0.337,0.39 0.58,0.52c0.243,0.13 0.545,0.195 0.905,0.195Z" style="fill:#aa9fa4;fill-rule:nonzero;"/><path d="M134.104,174.17l0,0.06c0,0.3 0.04,0.587 0.12,0.86c0.08,0.273 0.198,0.513 0.355,0.72c0.157,0.207 0.353,0.37 0.59,0.49c0.237,0.12 0.512,0.18 0.825,0.18c0.513,0 0.92,-0.135 1.22,-0.405c0.3,-0.27 0.507,-0.645 0.62,-1.125l0.38,0c-0.113,0.6 -0.358,1.06 -0.735,1.38c-0.377,0.32 -0.875,0.48 -1.495,0.48c-0.38,0 -0.712,-0.068 -0.995,-0.205c-0.283,-0.137 -0.52,-0.323 -0.71,-0.56c-0.19,-0.237 -0.332,-0.517 -0.425,-0.84c-0.093,-0.323 -0.14,-0.672 -0.14,-1.045c0,-0.36 0.048,-0.705 0.145,-1.035c0.097,-0.33 0.242,-0.62 0.435,-0.87c0.193,-0.25 0.435,-0.45 0.725,-0.6c0.29,-0.15 0.632,-0.225 1.025,-0.225c0.36,0 0.678,0.067 0.955,0.2c0.277,0.133 0.508,0.315 0.695,0.545c0.187,0.23 0.328,0.497 0.425,0.8c0.097,0.303 0.145,0.628 0.145,0.975c0,0.033 -0.002,0.072 -0.005,0.115c-0.003,0.043 -0.005,0.078 -0.005,0.105l-4.15,0Zm3.77,-0.33c-0.013,-0.28 -0.06,-0.545 -0.14,-0.795c-0.08,-0.25 -0.198,-0.47 -0.355,-0.66c-0.157,-0.19 -0.347,-0.342 -0.57,-0.455c-0.223,-0.113 -0.478,-0.17 -0.765,-0.17c-0.307,0 -0.577,0.058 -0.81,0.175c-0.233,0.117 -0.43,0.27 -0.59,0.46c-0.16,0.19 -0.283,0.412 -0.37,0.665c-0.087,0.253 -0.14,0.513 -0.16,0.78l3.76,0Z" style="fill:#aa9fa4;fill-rule:nonzero;"/><path d="M139.324,174.98c0.013,0.24 0.067,0.452 0.16,0.635c0.093,0.183 0.215,0.34 0.365,0.47c0.15,0.13 0.325,0.228 0.525,0.295c0.2,0.067 0.417,0.1 0.65,0.1c0.167,0 0.345,-0.015 0.535,-0.045c0.19,-0.03 0.367,-0.085 0.53,-0.165c0.163,-0.08 0.298,-0.192 0.405,-0.335c0.107,-0.143 0.16,-0.325 0.16,-0.545c0,-0.287 -0.087,-0.503 -0.26,-0.65c-0.173,-0.147 -0.392,-0.26 -0.655,-0.34c-0.263,-0.08 -0.547,-0.145 -0.85,-0.195c-0.303,-0.05 -0.587,-0.125 -0.85,-0.225c-0.263,-0.1 -0.482,-0.242 -0.655,-0.425c-0.173,-0.183 -0.26,-0.452 -0.26,-0.805c0,-0.253 0.057,-0.465 0.17,-0.635c0.113,-0.17 0.258,-0.305 0.435,-0.405c0.177,-0.1 0.375,-0.172 0.595,-0.215c0.22,-0.043 0.44,-0.065 0.66,-0.065c0.267,0 0.517,0.03 0.75,0.09c0.233,0.06 0.435,0.157 0.605,0.29c0.17,0.133 0.303,0.303 0.4,0.51c0.097,0.207 0.145,0.457 0.145,0.75l-0.38,0c0,-0.233 -0.038,-0.433 -0.115,-0.6c-0.077,-0.167 -0.183,-0.302 -0.32,-0.405c-0.137,-0.103 -0.298,-0.18 -0.485,-0.23c-0.187,-0.05 -0.387,-0.075 -0.6,-0.075c-0.173,0 -0.348,0.017 -0.525,0.05c-0.177,0.033 -0.335,0.09 -0.475,0.17c-0.14,0.08 -0.255,0.183 -0.345,0.31c-0.09,0.127 -0.135,0.28 -0.135,0.46c0,0.207 0.05,0.373 0.15,0.5c0.1,0.127 0.232,0.228 0.395,0.305c0.163,0.077 0.347,0.138 0.55,0.185c0.203,0.047 0.408,0.093 0.615,0.14c0.253,0.047 0.492,0.102 0.715,0.165c0.223,0.063 0.417,0.15 0.58,0.26c0.163,0.11 0.292,0.252 0.385,0.425c0.093,0.173 0.14,0.393 0.14,0.66c0,0.28 -0.063,0.51 -0.19,0.69c-0.127,0.18 -0.287,0.325 -0.48,0.435c-0.193,0.11 -0.408,0.187 -0.645,0.23c-0.237,0.043 -0.468,0.065 -0.695,0.065c-0.293,0 -0.565,-0.038 -0.815,-0.115c-0.25,-0.077 -0.468,-0.193 -0.655,-0.35c-0.187,-0.157 -0.333,-0.348 -0.44,-0.575c-0.107,-0.227 -0.163,-0.49 -0.17,-0.79l0.38,0Z" style="fill:#aa9fa4;fill-rule:nonzero;"/></g><g><path d="M100.037,211.69l49.912,0" style="fill:none;stroke:#ea304d;stroke-width:0.5px;"/><path d="M100.29,199.14l0,4.28c0,0.14 0.007,0.303 0.02,0.49c0.013,0.187 0.047,0.378 0.1,0.575c0.053,0.197 0.128,0.39 0.225,0.58c0.097,0.19 0.228,0.36 0.395,0.51c0.167,0.15 0.372,0.27 0.615,0.36c0.243,0.09 0.538,0.135 0.885,0.135c0.44,0 0.808,-0.062 1.105,-0.185c0.297,-0.123 0.537,-0.3 0.72,-0.53c0.183,-0.23 0.315,-0.508 0.395,-0.835c0.08,-0.327 0.12,-0.693 0.12,-1.1l0,-4.28l0.44,0l0,4.28c0,0.427 -0.045,0.823 -0.135,1.19c-0.09,0.367 -0.242,0.687 -0.455,0.96c-0.213,0.273 -0.498,0.488 -0.855,0.645c-0.357,0.157 -0.802,0.235 -1.335,0.235c-0.42,0 -0.78,-0.053 -1.08,-0.16c-0.3,-0.107 -0.548,-0.245 -0.745,-0.415c-0.197,-0.17 -0.352,-0.365 -0.465,-0.585c-0.113,-0.22 -0.2,-0.442 -0.26,-0.665c-0.06,-0.223 -0.097,-0.44 -0.11,-0.65c-0.013,-0.21 -0.02,-0.395 -0.02,-0.555l0,-4.28l0.44,0Z" style="fill:#aa9fa4;fill-rule:nonzero;"/><path d="M106.68,204.57c0.013,0.24 0.067,0.452 0.16,0.635c0.093,0.183 0.215,0.34 0.365,0.47c0.15,0.13 0.325,0.228 0.525,0.295c0.2,0.067 0.417,0.1 0.65,0.1c0.167,0 0.345,-0.015 0.535,-0.045c0.19,-0.03 0.367,-0.085 0.53,-0.165c0.163,-0.08 0.298,-0.192 0.405,-0.335c0.107,-0.143 0.16,-0.325 0.16,-0.545c0,-0.287 -0.087,-0.503 -0.26,-0.65c-0.173,-0.147 -0.392,-0.26 -0.655,-0.34c-0.263,-0.08 -0.547,-0.145 -0.85,-0.195c-0.303,-0.05 -0.587,-0.125 -0.85,-0.225c-0.263,-0.1 -0.482,-0.242 -0.655,-0.425c-0.173,-0.183 -0.26,-0.452 -0.26,-0.805c0,-0.253 0.057,-0.465 0.17,-0.635c0.113,-0.17 0.258,-0.305 0.435,-0.405c0.177,-0.1 0.375,-0.172 0.595,-0.215c0.22,-0.043 0.44,-0.065 0.66,-0.065c0.267,0 0.517,0.03 0.75,0.09c0.233,0.06 0.435,0.157 0.605,0.29c0.17,0.133 0.303,0.303 0.4,0.51c0.097,0.207 0.145,0.457 0.145,0.75l-0.38,0c0,-0.233 -0.038,-0.433 -0.115,-0.6c-0.077,-0.167 -0.183,-0.302 -0.32,-0.405c-0.137,-0.103 -0.298,-0.18 -0.485,-0.23c-0.187,-0.05 -0.387,-0.075 -0.6,-0.075c-0.173,0 -0.348,0.017 -0.525,0.05c-0.177,0.033 -0.335,0.09 -0.475,0.17c-0.14,0.08 -0.255,0.183 -0.345,0.31c-0.09,0.127 -0.135,0.28 -0.135,0.46c0,0.207 0.05,0.373 0.15,0.5c0.1,0.127 0.232,0.228 0.395,0.305c0.163,0.077 0.347,0.138 0.55,0.185c0.203,0.047 0.408,0.093 0.615,0.14c0.253,0.047 0.492,0.102 0.715,0.165c0.223,0.063 0.417,0.15 0.58,0.26c0.163,0.11 0.292,0.252 0.385,0.425c0.093,0.173 0.14,0.393 0.14,0.66c0,0.28 -0.063,0.51 -0.19,0.69c-0.127,0.18 -0.287,0.325 -0.48,0.435c-0.193,0.11 -0.408,0.187 -0.645,0.23c-0.237,0.043 -0.468,0.065 -0.695,0.065c-0.293,0 -0.565,-0.038 -0.815,-0.115c-0.25,-0.077 -0.468,-0.193 -0.655,-0.35c-0.187,-0.157 -0.333,-0.348 -0.44,-0.575c-0.107,-0.227 -0.163,-0.49 -0.17,-0.79l0.38,0Z" style="fill:#aa9fa4;fill-rule:nonzero;"/><path d="M111.46,203.76l0,0.06c0,0.3 0.04,0.587 0.12,0.86c0.08,0.273 0.198,0.513 0.355,0.72c0.157,0.207 0.353,0.37 0.59,0.49c0.237,0.12 0.512,0.18 0.825,0.18c0.513,0 0.92,-0.135 1.22,-0.405c0.3,-0.27 0.507,-0.645 0.62,-1.125l0.38,0c-0.113,0.6 -0.358,1.06 -0.735,1.38c-0.377,0.32 -0.875,0.48 -1.495,0.48c-0.38,0 -0.712,-0.068 -0.995,-0.205c-0.283,-0.137 -0.52,-0.323 -0.71,-0.56c-0.19,-0.237 -0.332,-0.517 -0.425,-0.84c-0.093,-0.323 -0.14,-0.672 -0.14,-1.045c0,-0.36 0.048,-0.705 0.145,-1.035c0.097,-0.33 0.242,-0.62 0.435,-0.87c0.193,-0.25 0.435,-0.45 0.725,-0.6c0.29,-0.15 0.632,-0.225 1.025,-0.225c0.36,0 0.678,0.067 0.955,0.2c0.277,0.133 0.508,0.315 0.695,0.545c0.187,0.23 0.328,0.497 0.425,0.8c0.097,0.303 0.145,0.628 0.145,0.975c0,0.033 -0.002,0.072 -0.005,0.115c-0.003,0.043 -0.005,0.078 -0.005,0.105l-4.15,0Zm3.77,-0.33c-0.013,-0.28 -0.06,-0.545 -0.14,-0.795c-0.08,-0.25 -0.198,-0.47 -0.355,-0.66c-0.157,-0.19 -0.347,-0.342 -0.57,-0.455c-0.223,-0.113 -0.478,-0.17 -0.765,-0.17c-0.307,0 -0.577,0.058 -0.81,0.175c-0.233,0.117 -0.43,0.27 -0.59,0.46c-0.16,0.19 -0.283,0.412 -0.37,0.665c-0.087,0.253 -0.14,0.513 -0.16,0.78l3.76,0Z" style="fill:#aa9fa4;fill-rule:nonzero;"/><path d="M116.88,202.28l0.03,0c0.047,-0.167 0.132,-0.323 0.255,-0.47c0.123,-0.147 0.273,-0.273 0.45,-0.38c0.177,-0.107 0.373,-0.188 0.59,-0.245c0.217,-0.057 0.442,-0.082 0.675,-0.075l0,0.38c-0.2,-0.027 -0.428,-0.007 -0.685,0.06c-0.257,0.067 -0.502,0.213 -0.735,0.44c-0.093,0.1 -0.175,0.197 -0.245,0.29c-0.07,0.093 -0.128,0.197 -0.175,0.31c-0.047,0.113 -0.083,0.24 -0.11,0.38c-0.027,0.14 -0.043,0.307 -0.05,0.5l0,2.81l-0.38,0l0,-5.14l0.38,0l0,1.14Z" style="fill:#aa9fa4;fill-rule:nonzero;"/><path d="M121.36,199.52l0,-0.38l5.47,0l0,0.38l-2.52,0l0,6.76l-0.44,0l0,-6.76l-2.51,0Z" style="fill:#aa9fa4;fill-rule:nonzero;"/><path d="M126.44,203.76l0,0.06c0,0.3 0.04,0.587 0.12,0.86c0.08,0.273 0.198,0.513 0.355,0.72c0.157,0.207 0.353,0.37 0.59,0.49c0.237,0.12 0.512,0.18 0.825,0.18c0.513,0 0.92,-0.135 1.22,-0.405c0.3,-0.27 0.507,-0.645 0.62,-1.125l0.38,0c-0.113,0.6 -0.358,1.06 -0.735,1.38c-0.377,0.32 -0.875,0.48 -1.495,0.48c-0.38,0 -0.712,-0.068 -0.995,-0.205c-0.283,-0.137 -0.52,-0.323 -0.71,-0.56c-0.19,-0.237 -0.332,-0.517 -0.425,-0.84c-0.093,-0.323 -0.14,-0.672 -0.14,-1.045c0,-0.36 0.048,-0.705 0.145,-1.035c0.097,-0.33 0.242,-0.62 0.435,-0.87c0.193,-0.25 0.435,-0.45 0.725,-0.6c0.29,-0.15 0.632,-0.225 1.025,-0.225c0.36,0 0.678,0.067 0.955,0.2c0.277,0.133 0.508,0.315 0.695,0.545c0.187,0.23 0.328,0.497 0.425,0.8c0.097,0.303 0.145,0.628 0.145,0.975c0,0.033 -0.002,0.072 -0.005,0.115c-0.003,0.043 -0.005,0.078 -0.005,0.105l-4.15,0Zm3.77,-0.33c-0.013,-0.28 -0.06,-0.545 -0.14,-0.795c-0.08,-0.25 -0.198,-0.47 -0.355,-0.66c-0.157,-0.19 -0.347,-0.342 -0.57,-0.455c-0.223,-0.113 -0.478,-0.17 -0.765,-0.17c-0.307,0 -0.577,0.058 -0.81,0.175c-0.233,0.117 -0.43,0.27 -0.59,0.46c-0.16,0.19 -0.283,0.412 -0.37,0.665c-0.087,0.253 -0.14,0.513 -0.16,0.78l3.76,0Z" style="fill:#aa9fa4;fill-rule:nonzero;"/><path d="M131.66,204.57c0.013,0.24 0.067,0.452 0.16,0.635c0.093,0.183 0.215,0.34 0.365,0.47c0.15,0.13 0.325,0.228 0.525,0.295c0.2,0.067 0.417,0.1 0.65,0.1c0.167,0 0.345,-0.015 0.535,-0.045c0.19,-0.03 0.367,-0.085 0.53,-0.165c0.163,-0.08 0.298,-0.192 0.405,-0.335c0.107,-0.143 0.16,-0.325 0.16,-0.545c0,-0.287 -0.087,-0.503 -0.26,-0.65c-0.173,-0.147 -0.392,-0.26 -0.655,-0.34c-0.263,-0.08 -0.547,-0.145 -0.85,-0.195c-0.303,-0.05 -0.587,-0.125 -0.85,-0.225c-0.263,-0.1 -0.482,-0.242 -0.655,-0.425c-0.173,-0.183 -0.26,-0.452 -0.26,-0.805c0,-0.253 0.057,-0.465 0.17,-0.635c0.113,-0.17 0.258,-0.305 0.435,-0.405c0.177,-0.1 0.375,-0.172 0.595,-0.215c0.22,-0.043 0.44,-0.065 0.66,-0.065c0.267,0 0.517,0.03 0.75,0.09c0.233,0.06 0.435,0.157 0.605,0.29c0.17,0.133 0.303,0.303 0.4,0.51c0.097,0.207 0.145,0.457 0.145,0.75l-0.38,0c0,-0.233 -0.038,-0.433 -0.115,-0.6c-0.077,-0.167 -0.183,-0.302 -0.32,-0.405c-0.137,-0.103 -0.298,-0.18 -0.485,-0.23c-0.187,-0.05 -0.387,-0.075 -0.6,-0.075c-0.173,0 -0.348,0.017 -0.525,0.05c-0.177,0.033 -0.335,0.09 -0.475,0.17c-0.14,0.08 -0.255,0.183 -0.345,0.31c-0.09,0.127 -0.135,0.28 -0.135,0.46c0,0.207 0.05,0.373 0.15,0.5c0.1,0.127 0.232,0.228 0.395,0.305c0.163,0.077 0.347,0.138 0.55,0.185c0.203,0.047 0.408,0.093 0.615,0.14c0.253,0.047 0.492,0.102 0.715,0.165c0.223,0.063 0.417,0.15 0.58,0.26c0.163,0.11 0.292,0.252 0.385,0.425c0.093,0.173 0.14,0.393 0.14,0.66c0,0.28 -0.063,0.51 -0.19,0.69c-0.127,0.18 -0.287,0.325 -0.48,0.435c-0.193,0.11 -0.408,0.187 -0.645,0.23c-0.237,0.043 -0.468,0.065 -0.695,0.065c-0.293,0 -0.565,-0.038 -0.815,-0.115c-0.25,-0.077 -0.468,-0.193 -0.655,-0.35c-0.187,-0.157 -0.333,-0.348 -0.44,-0.575c-0.107,-0.227 -0.163,-0.49 -0.17,-0.79l0.38,0Z" style="fill:#aa9fa4;fill-rule:nonzero;"/><path d="M138.18,201.47l-1.12,0l0,3.59c0,0.207 0.023,0.37 0.07,0.49c0.047,0.12 0.118,0.212 0.215,0.275c0.097,0.063 0.213,0.102 0.35,0.115c0.137,0.013 0.295,0.017 0.475,0.01l0,0.33c-0.193,0.013 -0.382,0.012 -0.565,-0.005c-0.183,-0.017 -0.345,-0.067 -0.485,-0.15c-0.14,-0.083 -0.252,-0.208 -0.335,-0.375c-0.083,-0.167 -0.118,-0.397 -0.105,-0.69l0,-3.59l-0.95,0l0,-0.33l0.95,0l0,-1.6l0.38,0l0,1.6l1.12,0l0,0.33Z" style="fill:#aa9fa4;fill-rule:nonzero;"/><path d="M138.97,200.17l0,-1.03l0.38,0l0,1.03l-0.38,0Zm0,6.11l0,-5.14l0.38,0l0,5.14l-0.38,0Z" style="fill:#aa9fa4;fill-rule:nonzero;"/><path d="M140.56,201.14l0.38,0l0,1.1l0.02,0c0.067,-0.193 0.162,-0.365 0.285,-0.515c0.123,-0.15 0.267,-0.278 0.43,-0.385c0.163,-0.107 0.342,-0.187 0.535,-0.24c0.193,-0.053 0.39,-0.08 0.59,-0.08c0.3,0 0.555,0.037 0.765,0.11c0.21,0.073 0.382,0.17 0.515,0.29c0.133,0.12 0.238,0.255 0.315,0.405c0.077,0.15 0.132,0.302 0.165,0.455c0.033,0.153 0.053,0.302 0.06,0.445c0.007,0.143 0.01,0.268 0.01,0.375l0,3.18l-0.38,0l0,-3.25c0,-0.127 -0.01,-0.287 -0.03,-0.48c-0.02,-0.193 -0.078,-0.378 -0.175,-0.555c-0.097,-0.177 -0.243,-0.328 -0.44,-0.455c-0.197,-0.127 -0.468,-0.19 -0.815,-0.19c-0.293,0 -0.553,0.053 -0.78,0.16c-0.227,0.107 -0.42,0.255 -0.58,0.445c-0.16,0.19 -0.282,0.417 -0.365,0.68c-0.083,0.263 -0.125,0.552 -0.125,0.865l0,2.78l-0.38,0l0,-5.14Z" style="fill:#aa9fa4;fill-rule:nonzero;"/><path d="M150,201.14l0,4.87c0,0.287 -0.033,0.565 -0.1,0.835c-0.067,0.27 -0.182,0.508 -0.345,0.715c-0.163,0.207 -0.388,0.372 -0.675,0.495c-0.287,0.123 -0.65,0.185 -1.09,0.185c-0.273,0 -0.53,-0.028 -0.77,-0.085c-0.24,-0.057 -0.45,-0.147 -0.63,-0.27c-0.18,-0.123 -0.325,-0.287 -0.435,-0.49c-0.11,-0.203 -0.172,-0.455 -0.185,-0.755l0.38,0c0.02,0.227 0.077,0.42 0.17,0.58c0.093,0.16 0.215,0.292 0.365,0.395c0.15,0.103 0.318,0.178 0.505,0.225c0.187,0.047 0.387,0.07 0.6,0.07c0.353,0 0.648,-0.053 0.885,-0.16c0.237,-0.107 0.425,-0.245 0.565,-0.415c0.14,-0.17 0.238,-0.363 0.295,-0.58c0.057,-0.217 0.085,-0.435 0.085,-0.655l0,-1.18l-0.02,0c-0.18,0.38 -0.425,0.67 -0.735,0.87c-0.31,0.2 -0.685,0.3 -1.125,0.3c-0.38,0 -0.708,-0.065 -0.985,-0.195c-0.277,-0.13 -0.507,-0.31 -0.69,-0.54c-0.183,-0.23 -0.32,-0.498 -0.41,-0.805c-0.09,-0.307 -0.135,-0.64 -0.135,-1c0,-0.34 0.048,-0.663 0.145,-0.97c0.097,-0.307 0.238,-0.575 0.425,-0.805c0.187,-0.23 0.418,-0.413 0.695,-0.55c0.277,-0.137 0.595,-0.205 0.955,-0.205c0.407,0 0.782,0.103 1.125,0.31c0.343,0.207 0.588,0.5 0.735,0.88l0.02,0l0,-1.07l0.38,0Zm-2.26,0.21c-0.313,0 -0.585,0.063 -0.815,0.19c-0.23,0.127 -0.42,0.293 -0.57,0.5c-0.15,0.207 -0.263,0.442 -0.34,0.705c-0.077,0.263 -0.115,0.532 -0.115,0.805c0,0.3 0.038,0.585 0.115,0.855c0.077,0.27 0.193,0.505 0.35,0.705c0.157,0.2 0.35,0.358 0.58,0.475c0.23,0.117 0.495,0.175 0.795,0.175c0.313,0 0.587,-0.06 0.82,-0.18c0.233,-0.12 0.428,-0.283 0.585,-0.49c0.157,-0.207 0.273,-0.442 0.35,-0.705c0.077,-0.263 0.115,-0.542 0.115,-0.835c0,-0.287 -0.038,-0.563 -0.115,-0.83c-0.077,-0.267 -0.193,-0.502 -0.35,-0.705c-0.157,-0.203 -0.352,-0.365 -0.585,-0.485c-0.233,-0.12 -0.507,-0.18 -0.82,-0.18Z" style="fill:#aa9fa4;fill-rule:nonzero;"/></g><g><path d="M99.874,241.28l96.836,0" style="fill:none;stroke:#ea304d;stroke-width:0.5px;"/><path d="M99.687,228.85l4.48,0l0,0.38l-4.04,0l0,2.86l3.64,0l0,0.38l-3.64,0l0,3.52l-0.44,0l0,-7.14Z" style="fill:#aa9fa4;fill-rule:nonzero;"/><path d="M104.897,231.99l0.03,0c0.047,-0.167 0.132,-0.323 0.255,-0.47c0.123,-0.147 0.273,-0.273 0.45,-0.38c0.177,-0.107 0.373,-0.188 0.59,-0.245c0.217,-0.057 0.442,-0.082 0.675,-0.075l0,0.38c-0.2,-0.027 -0.428,-0.007 -0.685,0.06c-0.257,0.067 -0.502,0.213 -0.735,0.44c-0.093,0.1 -0.175,0.197 -0.245,0.29c-0.07,0.093 -0.128,0.197 -0.175,0.31c-0.047,0.113 -0.083,0.24 -0.11,0.38c-0.027,0.14 -0.043,0.307 -0.05,0.5l0,2.81l-0.38,0l0,-5.14l0.38,0l0,1.14Z" style="fill:#aa9fa4;fill-rule:nonzero;"/><path d="M106.937,233.42c0,-0.367 0.052,-0.712 0.155,-1.035c0.103,-0.323 0.255,-0.608 0.455,-0.855c0.2,-0.247 0.447,-0.442 0.74,-0.585c0.293,-0.143 0.63,-0.215 1.01,-0.215c0.38,0 0.717,0.072 1.01,0.215c0.293,0.143 0.54,0.338 0.74,0.585c0.2,0.247 0.352,0.532 0.455,0.855c0.103,0.323 0.155,0.668 0.155,1.035c0,0.367 -0.052,0.713 -0.155,1.04c-0.103,0.327 -0.255,0.612 -0.455,0.855c-0.2,0.243 -0.447,0.437 -0.74,0.58c-0.293,0.143 -0.63,0.215 -1.01,0.215c-0.38,0 -0.717,-0.072 -1.01,-0.215c-0.293,-0.143 -0.54,-0.337 -0.74,-0.58c-0.2,-0.243 -0.352,-0.528 -0.455,-0.855c-0.103,-0.327 -0.155,-0.673 -0.155,-1.04Zm0.38,0c0,0.307 0.043,0.602 0.13,0.885c0.087,0.283 0.213,0.535 0.38,0.755c0.167,0.22 0.373,0.395 0.62,0.525c0.247,0.13 0.53,0.195 0.85,0.195c0.32,0 0.603,-0.065 0.85,-0.195c0.247,-0.13 0.453,-0.305 0.62,-0.525c0.167,-0.22 0.293,-0.472 0.38,-0.755c0.087,-0.283 0.13,-0.578 0.13,-0.885c0,-0.307 -0.043,-0.602 -0.13,-0.885c-0.087,-0.283 -0.213,-0.535 -0.38,-0.755c-0.167,-0.22 -0.373,-0.395 -0.62,-0.525c-0.247,-0.13 -0.53,-0.195 -0.85,-0.195c-0.32,0 -0.603,0.065 -0.85,0.195c-0.247,0.13 -0.453,0.305 -0.62,0.525c-0.167,0.22 -0.293,0.472 -0.38,0.755c-0.087,0.283 -0.13,0.578 -0.13,0.885Z" style="fill:#aa9fa4;fill-rule:nonzero;"/><path d="M112.547,230.85l0.38,0l0,1.1l0.02,0c0.067,-0.193 0.162,-0.365 0.285,-0.515c0.123,-0.15 0.267,-0.278 0.43,-0.385c0.163,-0.107 0.342,-0.187 0.535,-0.24c0.193,-0.053 0.39,-0.08 0.59,-0.08c0.3,0 0.555,0.037 0.765,0.11c0.21,0.073 0.382,0.17 0.515,0.29c0.133,0.12 0.238,0.255 0.315,0.405c0.077,0.15 0.132,0.302 0.165,0.455c0.033,0.153 0.053,0.302 0.06,0.445c0.007,0.143 0.01,0.268 0.01,0.375l0,3.18l-0.38,0l0,-3.25c0,-0.127 -0.01,-0.287 -0.03,-0.48c-0.02,-0.193 -0.078,-0.378 -0.175,-0.555c-0.097,-0.177 -0.243,-0.328 -0.44,-0.455c-0.197,-0.127 -0.468,-0.19 -0.815,-0.19c-0.293,0 -0.553,0.053 -0.78,0.16c-0.227,0.107 -0.42,0.255 -0.58,0.445c-0.16,0.19 -0.282,0.417 -0.365,0.68c-0.083,0.263 -0.125,0.552 -0.125,0.865l0,2.78l-0.38,0l0,-5.14Z" style="fill:#aa9fa4;fill-rule:nonzero;"/><path d="M119.627,231.18l-1.12,0l0,3.59c0,0.207 0.023,0.37 0.07,0.49c0.047,0.12 0.118,0.212 0.215,0.275c0.097,0.063 0.213,0.102 0.35,0.115c0.137,0.013 0.295,0.017 0.475,0.01l0,0.33c-0.193,0.013 -0.382,0.012 -0.565,-0.005c-0.183,-0.017 -0.345,-0.067 -0.485,-0.15c-0.14,-0.083 -0.252,-0.208 -0.335,-0.375c-0.083,-0.167 -0.118,-0.397 -0.105,-0.69l0,-3.59l-0.95,0l0,-0.33l0.95,0l0,-1.6l0.38,0l0,1.6l1.12,0l0,0.33Z" style="fill:#aa9fa4;fill-rule:nonzero;"/><rect x="120.457" y="233.08" width="2.14" height="0.38" style="fill:#aa9fa4;fill-rule:nonzero;"/><path d="M123.997,233.47l0,0.06c0,0.3 0.04,0.587 0.12,0.86c0.08,0.273 0.198,0.513 0.355,0.72c0.157,0.207 0.353,0.37 0.59,0.49c0.237,0.12 0.512,0.18 0.825,0.18c0.513,0 0.92,-0.135 1.22,-0.405c0.3,-0.27 0.507,-0.645 0.62,-1.125l0.38,0c-0.113,0.6 -0.358,1.06 -0.735,1.38c-0.377,0.32 -0.875,0.48 -1.495,0.48c-0.38,0 -0.712,-0.068 -0.995,-0.205c-0.283,-0.137 -0.52,-0.323 -0.71,-0.56c-0.19,-0.237 -0.332,-0.517 -0.425,-0.84c-0.093,-0.323 -0.14,-0.672 -0.14,-1.045c0,-0.36 0.048,-0.705 0.145,-1.035c0.097,-0.33 0.242,-0.62 0.435,-0.87c0.193,-0.25 0.435,-0.45 0.725,-0.6c0.29,-0.15 0.632,-0.225 1.025,-0.225c0.36,0 0.678,0.067 0.955,0.2c0.277,0.133 0.508,0.315 0.695,0.545c0.187,0.23 0.328,0.497 0.425,0.8c0.097,0.303 0.145,0.628 0.145,0.975c0,0.033 -0.002,0.072 -0.005,0.115c-0.003,0.043 -0.005,0.078 -0.005,0.105l-4.15,0Zm3.77,-0.33c-0.013,-0.28 -0.06,-0.545 -0.14,-0.795c-0.08,-0.25 -0.198,-0.47 -0.355,-0.66c-0.157,-0.19 -0.347,-0.342 -0.57,-0.455c-0.223,-0.113 -0.478,-0.17 -0.765,-0.17c-0.307,0 -0.577,0.058 -0.81,0.175c-0.233,0.117 -0.43,0.27 -0.59,0.46c-0.16,0.19 -0.283,0.412 -0.37,0.665c-0.087,0.253 -0.14,0.513 -0.16,0.78l3.76,0Z" style="fill:#aa9fa4;fill-rule:nonzero;"/><path d="M129.037,230.85l0.38,0l0,1.1l0.02,0c0.067,-0.193 0.162,-0.365 0.285,-0.515c0.123,-0.15 0.267,-0.278 0.43,-0.385c0.163,-0.107 0.342,-0.187 0.535,-0.24c0.193,-0.053 0.39,-0.08 0.59,-0.08c0.3,0 0.555,0.037 0.765,0.11c0.21,0.073 0.382,0.17 0.515,0.29c0.133,0.12 0.238,0.255 0.315,0.405c0.077,0.15 0.132,0.302 0.165,0.455c0.033,0.153 0.053,0.302 0.06,0.445c0.007,0.143 0.01,0.268 0.01,0.375l0,3.18l-0.38,0l0,-3.25c0,-0.127 -0.01,-0.287 -0.03,-0.48c-0.02,-0.193 -0.078,-0.378 -0.175,-0.555c-0.097,-0.177 -0.243,-0.328 -0.44,-0.455c-0.197,-0.127 -0.468,-0.19 -0.815,-0.19c-0.293,0 -0.553,0.053 -0.78,0.16c-0.227,0.107 -0.42,0.255 -0.58,0.445c-0.16,0.19 -0.282,0.417 -0.365,0.68c-0.083,0.263 -0.125,0.552 -0.125,0.865l0,2.78l-0.38,0l0,-5.14Z" style="fill:#aa9fa4;fill-rule:nonzero;"/><path d="M138.197,234.89l-0.02,0c-0.213,0.407 -0.48,0.712 -0.8,0.915c-0.32,0.203 -0.71,0.305 -1.17,0.305c-0.387,0 -0.72,-0.073 -1,-0.22c-0.28,-0.147 -0.51,-0.343 -0.69,-0.59c-0.18,-0.247 -0.313,-0.532 -0.4,-0.855c-0.087,-0.323 -0.13,-0.662 -0.13,-1.015c0,-0.38 0.047,-0.735 0.14,-1.065c0.093,-0.33 0.235,-0.615 0.425,-0.855c0.19,-0.24 0.428,-0.43 0.715,-0.57c0.287,-0.14 0.623,-0.21 1.01,-0.21c0.207,0 0.41,0.028 0.61,0.085c0.2,0.057 0.385,0.138 0.555,0.245c0.17,0.107 0.318,0.24 0.445,0.4c0.127,0.16 0.223,0.34 0.29,0.54l0.02,0l0,-3.15l0.38,0l0,7.14l-0.38,0l0,-1.1Zm-1.91,0.89c0.327,0 0.608,-0.067 0.845,-0.2c0.237,-0.133 0.433,-0.31 0.59,-0.53c0.157,-0.22 0.273,-0.472 0.35,-0.755c0.077,-0.283 0.115,-0.572 0.115,-0.865c0,-0.3 -0.038,-0.592 -0.115,-0.875c-0.077,-0.283 -0.192,-0.537 -0.345,-0.76c-0.153,-0.223 -0.352,-0.402 -0.595,-0.535c-0.243,-0.133 -0.528,-0.2 -0.855,-0.2c-0.34,0 -0.63,0.065 -0.87,0.195c-0.24,0.13 -0.438,0.305 -0.595,0.525c-0.157,0.22 -0.27,0.473 -0.34,0.76c-0.07,0.287 -0.105,0.583 -0.105,0.89c0,0.3 0.038,0.592 0.115,0.875c0.077,0.283 0.193,0.535 0.35,0.755c0.157,0.22 0.355,0.395 0.595,0.525c0.24,0.13 0.527,0.195 0.86,0.195Z" style="fill:#aa9fa4;fill-rule:nonzero;"/><path d="M142.637,228.85l2.34,0c0.64,0 1.172,0.1 1.595,0.3c0.423,0.2 0.762,0.467 1.015,0.8c0.253,0.333 0.432,0.713 0.535,1.14c0.103,0.427 0.155,0.867 0.155,1.32c0,0.507 -0.065,0.978 -0.195,1.415c-0.13,0.437 -0.332,0.815 -0.605,1.135c-0.273,0.32 -0.618,0.572 -1.035,0.755c-0.417,0.183 -0.912,0.275 -1.485,0.275l-2.32,0l0,-7.14Zm2.36,6.76c0.333,0 0.668,-0.052 1.005,-0.155c0.337,-0.103 0.642,-0.277 0.915,-0.52c0.273,-0.243 0.495,-0.57 0.665,-0.98c0.17,-0.41 0.255,-0.925 0.255,-1.545c0,-0.487 -0.048,-0.903 -0.145,-1.25c-0.097,-0.347 -0.223,-0.638 -0.38,-0.875c-0.157,-0.237 -0.337,-0.423 -0.54,-0.56c-0.203,-0.137 -0.413,-0.242 -0.63,-0.315c-0.217,-0.073 -0.433,-0.122 -0.65,-0.145c-0.217,-0.023 -0.412,-0.035 -0.585,-0.035l-1.83,0l0,6.38l1.92,0Z" style="fill:#aa9fa4;fill-rule:nonzero;"/><path d="M149.387,233.47l0,0.06c0,0.3 0.04,0.587 0.12,0.86c0.08,0.273 0.198,0.513 0.355,0.72c0.157,0.207 0.353,0.37 0.59,0.49c0.237,0.12 0.512,0.18 0.825,0.18c0.513,0 0.92,-0.135 1.22,-0.405c0.3,-0.27 0.507,-0.645 0.62,-1.125l0.38,0c-0.113,0.6 -0.358,1.06 -0.735,1.38c-0.377,0.32 -0.875,0.48 -1.495,0.48c-0.38,0 -0.712,-0.068 -0.995,-0.205c-0.283,-0.137 -0.52,-0.323 -0.71,-0.56c-0.19,-0.237 -0.332,-0.517 -0.425,-0.84c-0.093,-0.323 -0.14,-0.672 -0.14,-1.045c0,-0.36 0.048,-0.705 0.145,-1.035c0.097,-0.33 0.242,-0.62 0.435,-0.87c0.193,-0.25 0.435,-0.45 0.725,-0.6c0.29,-0.15 0.632,-0.225 1.025,-0.225c0.36,0 0.678,0.067 0.955,0.2c0.277,0.133 0.508,0.315 0.695,0.545c0.187,0.23 0.328,0.497 0.425,0.8c0.097,0.303 0.145,0.628 0.145,0.975c0,0.033 -0.002,0.072 -0.005,0.115c-0.003,0.043 -0.005,0.078 -0.005,0.105l-4.15,0Zm3.77,-0.33c-0.013,-0.28 -0.06,-0.545 -0.14,-0.795c-0.08,-0.25 -0.198,-0.47 -0.355,-0.66c-0.157,-0.19 -0.347,-0.342 -0.57,-0.455c-0.223,-0.113 -0.478,-0.17 -0.765,-0.17c-0.307,0 -0.577,0.058 -0.81,0.175c-0.233,0.117 -0.43,0.27 -0.59,0.46c-0.16,0.19 -0.283,0.412 -0.37,0.665c-0.087,0.253 -0.14,0.513 -0.16,0.78l3.76,0Z" style="fill:#aa9fa4;fill-rule:nonzero;"/><path d="M156.387,235.99l-0.47,0l-2.07,-5.14l0.44,0l1.86,4.7l0.02,0l1.74,-4.7l0.42,0l-1.94,5.14Z" style="fill:#aa9fa4;fill-rule:nonzero;"/><path d="M159.017,233.47l0,0.06c0,0.3 0.04,0.587 0.12,0.86c0.08,0.273 0.198,0.513 0.355,0.72c0.157,0.207 0.353,0.37 0.59,0.49c0.237,0.12 0.512,0.18 0.825,0.18c0.513,0 0.92,-0.135 1.22,-0.405c0.3,-0.27 0.507,-0.645 0.62,-1.125l0.38,0c-0.113,0.6 -0.358,1.06 -0.735,1.38c-0.377,0.32 -0.875,0.48 -1.495,0.48c-0.38,0 -0.712,-0.068 -0.995,-0.205c-0.283,-0.137 -0.52,-0.323 -0.71,-0.56c-0.19,-0.237 -0.332,-0.517 -0.425,-0.84c-0.093,-0.323 -0.14,-0.672 -0.14,-1.045c0,-0.36 0.048,-0.705 0.145,-1.035c0.097,-0.33 0.242,-0.62 0.435,-0.87c0.193,-0.25 0.435,-0.45 0.725,-0.6c0.29,-0.15 0.632,-0.225 1.025,-0.225c0.36,0 0.678,0.067 0.955,0.2c0.277,0.133 0.508,0.315 0.695,0.545c0.187,0.23 0.328,0.497 0.425,0.8c0.097,0.303 0.145,0.628 0.145,0.975c0,0.033 -0.002,0.072 -0.005,0.115c-0.003,0.043 -0.005,0.078 -0.005,0.105l-4.15,0Zm3.77,-0.33c-0.013,-0.28 -0.06,-0.545 -0.14,-0.795c-0.08,-0.25 -0.198,-0.47 -0.355,-0.66c-0.157,-0.19 -0.347,-0.342 -0.57,-0.455c-0.223,-0.113 -0.478,-0.17 -0.765,-0.17c-0.307,0 -0.577,0.058 -0.81,0.175c-0.233,0.117 -0.43,0.27 -0.59,0.46c-0.16,0.19 -0.283,0.412 -0.37,0.665c-0.087,0.253 -0.14,0.513 -0.16,0.78l3.76,0Z" style="fill:#aa9fa4;fill-rule:nonzero;"/><rect x="164.147" y="228.85" width="0.38" height="7.14" style="fill:#aa9fa4;fill-rule:nonzero;"/><path d="M165.497,233.42c0,-0.367 0.052,-0.712 0.155,-1.035c0.103,-0.323 0.255,-0.608 0.455,-0.855c0.2,-0.247 0.447,-0.442 0.74,-0.585c0.293,-0.143 0.63,-0.215 1.01,-0.215c0.38,0 0.717,0.072 1.01,0.215c0.293,0.143 0.54,0.338 0.74,0.585c0.2,0.247 0.352,0.532 0.455,0.855c0.103,0.323 0.155,0.668 0.155,1.035c0,0.367 -0.052,0.713 -0.155,1.04c-0.103,0.327 -0.255,0.612 -0.455,0.855c-0.2,0.243 -0.447,0.437 -0.74,0.58c-0.293,0.143 -0.63,0.215 -1.01,0.215c-0.38,0 -0.717,-0.072 -1.01,-0.215c-0.293,-0.143 -0.54,-0.337 -0.74,-0.58c-0.2,-0.243 -0.352,-0.528 -0.455,-0.855c-0.103,-0.327 -0.155,-0.673 -0.155,-1.04Zm0.38,0c0,0.307 0.043,0.602 0.13,0.885c0.087,0.283 0.213,0.535 0.38,0.755c0.167,0.22 0.373,0.395 0.62,0.525c0.247,0.13 0.53,0.195 0.85,0.195c0.32,0 0.603,-0.065 0.85,-0.195c0.247,-0.13 0.453,-0.305 0.62,-0.525c0.167,-0.22 0.293,-0.472 0.38,-0.755c0.087,-0.283 0.13,-0.578 0.13,-0.885c0,-0.307 -0.043,-0.602 -0.13,-0.885c-0.087,-0.283 -0.213,-0.535 -0.38,-0.755c-0.167,-0.22 -0.373,-0.395 -0.62,-0.525c-0.247,-0.13 -0.53,-0.195 -0.85,-0.195c-0.32,0 -0.603,0.065 -0.85,0.195c-0.247,0.13 -0.453,0.305 -0.62,0.525c-0.167,0.22 -0.293,0.472 -0.38,0.755c-0.087,0.283 -0.13,0.578 -0.13,0.885Z" style="fill:#aa9fa4;fill-rule:nonzero;"/><path d="M171.577,232.03l0.02,0c0.04,-0.127 0.107,-0.267 0.2,-0.42c0.093,-0.153 0.217,-0.295 0.37,-0.425c0.153,-0.13 0.338,-0.238 0.555,-0.325c0.217,-0.087 0.465,-0.13 0.745,-0.13c0.393,0 0.735,0.073 1.025,0.22c0.29,0.147 0.53,0.343 0.72,0.59c0.19,0.247 0.332,0.533 0.425,0.86c0.093,0.327 0.14,0.67 0.14,1.03c0,0.393 -0.047,0.753 -0.14,1.08c-0.093,0.327 -0.235,0.608 -0.425,0.845c-0.19,0.237 -0.43,0.422 -0.72,0.555c-0.29,0.133 -0.632,0.2 -1.025,0.2c-0.427,0 -0.807,-0.093 -1.14,-0.28c-0.333,-0.187 -0.577,-0.49 -0.73,-0.91l-0.02,0l0,2.91l-0.38,0l0,-6.98l0.38,0l0,1.18Zm1.89,3.75c0.333,0 0.622,-0.063 0.865,-0.19c0.243,-0.127 0.443,-0.297 0.6,-0.51c0.157,-0.213 0.273,-0.462 0.35,-0.745c0.077,-0.283 0.115,-0.585 0.115,-0.905c0,-0.293 -0.037,-0.582 -0.11,-0.865c-0.073,-0.283 -0.187,-0.537 -0.34,-0.76c-0.153,-0.223 -0.352,-0.403 -0.595,-0.54c-0.243,-0.137 -0.538,-0.205 -0.885,-0.205c-0.34,0 -0.63,0.067 -0.87,0.2c-0.24,0.133 -0.435,0.31 -0.585,0.53c-0.15,0.22 -0.258,0.472 -0.325,0.755c-0.067,0.283 -0.1,0.578 -0.1,0.885c0,0.307 0.03,0.602 0.09,0.885c0.06,0.283 0.162,0.533 0.305,0.75c0.143,0.217 0.337,0.39 0.58,0.52c0.243,0.13 0.545,0.195 0.905,0.195Z" style="fill:#aa9fa4;fill-rule:nonzero;"/><path d="M176.677,230.85l0.38,0l0,1.05l0.02,0c0.04,-0.16 0.11,-0.312 0.21,-0.455c0.1,-0.143 0.222,-0.268 0.365,-0.375c0.143,-0.107 0.303,-0.19 0.48,-0.25c0.177,-0.06 0.362,-0.09 0.555,-0.09c0.247,0 0.46,0.032 0.64,0.095c0.18,0.063 0.333,0.147 0.46,0.25c0.127,0.103 0.227,0.22 0.3,0.35c0.073,0.13 0.123,0.262 0.15,0.395l0.02,0c0.153,-0.36 0.358,-0.632 0.615,-0.815c0.257,-0.183 0.595,-0.275 1.015,-0.275c0.233,0 0.448,0.035 0.645,0.105c0.197,0.07 0.367,0.177 0.51,0.32c0.143,0.143 0.255,0.325 0.335,0.545c0.08,0.22 0.12,0.48 0.12,0.78l0,3.51l-0.38,0l0,-3.52c0,-0.327 -0.05,-0.583 -0.15,-0.77c-0.1,-0.187 -0.218,-0.328 -0.355,-0.425c-0.137,-0.097 -0.273,-0.157 -0.41,-0.18c-0.137,-0.023 -0.242,-0.035 -0.315,-0.035c-0.233,0 -0.448,0.04 -0.645,0.12c-0.197,0.08 -0.367,0.2 -0.51,0.36c-0.143,0.16 -0.255,0.358 -0.335,0.595c-0.08,0.237 -0.12,0.508 -0.12,0.815l0,3.04l-0.38,0l0,-3.52c0,-0.32 -0.048,-0.575 -0.145,-0.765c-0.097,-0.19 -0.21,-0.332 -0.34,-0.425c-0.13,-0.093 -0.263,-0.153 -0.4,-0.18c-0.137,-0.027 -0.245,-0.04 -0.325,-0.04c-0.18,0 -0.367,0.037 -0.56,0.11c-0.193,0.073 -0.37,0.187 -0.53,0.34c-0.16,0.153 -0.29,0.35 -0.39,0.59c-0.1,0.24 -0.15,0.523 -0.15,0.85l0,3.04l-0.38,0l0,-5.14Z" style="fill:#aa9fa4;fill-rule:nonzero;"/><path d="M184.777,233.47l0,0.06c0,0.3 0.04,0.587 0.12,0.86c0.08,0.273 0.198,0.513 0.355,0.72c0.157,0.207 0.353,0.37 0.59,0.49c0.237,0.12 0.512,0.18 0.825,0.18c0.513,0 0.92,-0.135 1.22,-0.405c0.3,-0.27 0.507,-0.645 0.62,-1.125l0.38,0c-0.113,0.6 -0.358,1.06 -0.735,1.38c-0.377,0.32 -0.875,0.48 -1.495,0.48c-0.38,0 -0.712,-0.068 -0.995,-0.205c-0.283,-0.137 -0.52,-0.323 -0.71,-0.56c-0.19,-0.237 -0.332,-0.517 -0.425,-0.84c-0.093,-0.323 -0.14,-0.672 -0.14,-1.045c0,-0.36 0.048,-0.705 0.145,-1.035c0.097,-0.33 0.242,-0.62 0.435,-0.87c0.193,-0.25 0.435,-0.45 0.725,-0.6c0.29,-0.15 0.632,-0.225 1.025,-0.225c0.36,0 0.678,0.067 0.955,0.2c0.277,0.133 0.508,0.315 0.695,0.545c0.187,0.23 0.328,0.497 0.425,0.8c0.097,0.303 0.145,0.628 0.145,0.975c0,0.033 -0.002,0.072 -0.005,0.115c-0.003,0.043 -0.005,0.078 -0.005,0.105l-4.15,0Zm3.77,-0.33c-0.013,-0.28 -0.06,-0.545 -0.14,-0.795c-0.08,-0.25 -0.198,-0.47 -0.355,-0.66c-0.157,-0.19 -0.347,-0.342 -0.57,-0.455c-0.223,-0.113 -0.478,-0.17 -0.765,-0.17c-0.307,0 -0.577,0.058 -0.81,0.175c-0.233,0.117 -0.43,0.27 -0.59,0.46c-0.16,0.19 -0.283,0.412 -0.37,0.665c-0.087,0.253 -0.14,0.513 -0.16,0.78l3.76,0Z" style="fill:#aa9fa4;fill-rule:nonzero;"/><path d="M189.817,230.85l0.38,0l0,1.1l0.02,0c0.067,-0.193 0.162,-0.365 0.285,-0.515c0.123,-0.15 0.267,-0.278 0.43,-0.385c0.163,-0.107 0.342,-0.187 0.535,-0.24c0.193,-0.053 0.39,-0.08 0.59,-0.08c0.3,0 0.555,0.037 0.765,0.11c0.21,0.073 0.382,0.17 0.515,0.29c0.133,0.12 0.238,0.255 0.315,0.405c0.077,0.15 0.132,0.302 0.165,0.455c0.033,0.153 0.053,0.302 0.06,0.445c0.007,0.143 0.01,0.268 0.01,0.375l0,3.18l-0.38,0l0,-3.25c0,-0.127 -0.01,-0.287 -0.03,-0.48c-0.02,-0.193 -0.078,-0.378 -0.175,-0.555c-0.097,-0.177 -0.243,-0.328 -0.44,-0.455c-0.197,-0.127 -0.468,-0.19 -0.815,-0.19c-0.293,0 -0.553,0.053 -0.78,0.16c-0.227,0.107 -0.42,0.255 -0.58,0.445c-0.16,0.19 -0.282,0.417 -0.365,0.68c-0.083,0.263 -0.125,0.552 -0.125,0.865l0,2.78l-0.38,0l0,-5.14Z" style="fill:#aa9fa4;fill-rule:nonzero;"/><path d="M196.897,231.18l-1.12,0l0,3.59c0,0.207 0.023,0.37 0.07,0.49c0.047,0.12 0.118,0.212 0.215,0.275c0.097,0.063 0.213,0.102 0.35,0.115c0.137,0.013 0.295,0.017 0.475,0.01l0,0.33c-0.193,0.013 -0.382,0.012 -0.565,-0.005c-0.183,-0.017 -0.345,-0.067 -0.485,-0.15c-0.14,-0.083 -0.252,-0.208 -0.335,-0.375c-0.083,-0.167 -0.118,-0.397 -0.105,-0.69l0,-3.59l-0.95,0l0,-0.33l0.95,0l0,-1.6l0.38,0l0,1.6l1.12,0l0,0.33Z" style="fill:#aa9fa4;fill-rule:nonzero;"/></g></g></svg>